<svg width="962" height="977" viewBox="0 0 962 977" fill="none" xmlns="http://www.w3.org/2000/svg">
<g clip-path="url(#clip0_18_664)">
<path d="M102 620.8V643.92C102 645.053 101.603 646.017 100.81 646.81C100.017 647.603 99.0533 648 97.92 648H13.09C11.8433 648 10.8233 647.603 10.03 646.81C9.35001 646.017 9.01001 645.053 9.01001 643.92V527.64C9.01001 526.507 9.35001 525.543 10.03 524.75C10.8233 523.957 11.8433 523.56 13.09 523.56H38.59C39.7233 523.56 40.6867 523.957 41.48 524.75C42.2733 525.543 42.67 526.507 42.67 527.64V612.64C42.67 613.773 43.01 614.737 43.69 615.53C44.4833 616.323 45.5033 616.72 46.75 616.72H97.92C99.0533 616.72 100.017 617.117 100.81 617.91C101.603 618.703 102 619.667 102 620.8ZM166.3 614.51H151.51C150.377 614.51 149.413 614.907 148.62 615.7C147.827 616.493 147.43 617.457 147.43 618.59V643.92C147.43 645.053 147.033 646.017 146.24 646.81C145.447 647.603 144.483 648 143.35 648H117.68C116.547 648 115.583 647.603 114.79 646.81C113.997 646.017 113.6 645.053 113.6 643.92V527.64C113.6 526.507 113.997 525.543 114.79 524.75C115.583 523.957 116.547 523.56 117.68 523.56H169.7C176.047 523.56 181.997 524.75 187.55 527.13C193.217 529.51 198.09 532.797 202.17 536.99C206.363 541.183 209.65 546.057 212.03 551.61C214.523 557.163 215.77 563.113 215.77 569.46C215.77 575.807 214.75 581.757 212.71 587.31C210.67 592.75 207.553 597.51 203.36 601.59C199.28 605.557 194.123 608.73 187.89 611.11C181.77 613.377 174.573 614.51 166.3 614.51ZM167.49 554.84H151.51C150.377 554.84 149.413 555.237 148.62 556.03C147.827 556.823 147.43 557.787 147.43 558.92V578.98C147.43 580.113 147.827 581.077 148.62 581.87C149.413 582.663 150.377 583.06 151.51 583.06H169.7C174.007 583.06 177.123 581.7 179.05 578.98C181.09 576.147 182.11 572.973 182.11 569.46C182.11 567.647 181.77 565.89 181.09 564.19C180.523 562.377 179.617 560.79 178.37 559.43C177.123 558.07 175.593 556.993 173.78 556.2C171.967 555.293 169.87 554.84 167.49 554.84ZM243.095 605.33C249.215 609.297 255.278 612.413 261.285 614.68C267.291 616.947 272.901 618.08 278.115 618.08C283.101 618.08 286.898 617.4 289.505 616.04C292.111 614.567 293.415 612.413 293.415 609.58C293.415 608.107 292.848 606.973 291.715 606.18C290.581 605.273 289.051 604.537 287.125 603.97C285.311 603.403 283.158 602.95 280.665 602.61C278.171 602.27 275.621 601.817 273.015 601.25C270.521 600.797 267.575 600.287 264.175 599.72C260.888 599.04 257.488 598.133 253.975 597C250.461 595.753 246.948 594.223 243.435 592.41C240.035 590.597 236.975 588.273 234.255 585.44C231.535 582.607 229.325 579.263 227.625 575.41C226.038 571.443 225.245 566.797 225.245 561.47C225.245 553.65 226.775 547.19 229.835 542.09C232.895 536.99 236.748 532.967 241.395 530.02C246.155 526.96 251.425 524.863 257.205 523.73C262.985 522.483 268.595 521.86 274.035 521.86C283.555 521.86 292.055 523.277 299.535 526.11C307.128 528.83 314.381 532.853 321.295 538.18C322.201 538.973 322.711 539.937 322.825 541.07C322.938 542.203 322.655 543.223 321.975 544.13L308.715 563C308.035 563.907 307.128 564.473 305.995 564.7C304.861 564.927 303.841 564.7 302.935 564.02C297.155 560.393 291.771 557.843 286.785 556.37C281.798 554.783 277.208 553.99 273.015 553.99C271.768 553.99 270.295 554.047 268.595 554.16C267.008 554.16 265.478 554.387 264.005 554.84C262.531 555.18 261.285 555.803 260.265 556.71C259.358 557.617 258.905 558.863 258.905 560.45C258.905 562.037 260.095 563.453 262.475 564.7C264.855 565.947 267.575 567.023 270.635 567.93C273.695 568.837 276.641 569.573 279.475 570.14C282.308 570.593 284.121 570.877 284.915 570.99C288.995 571.783 293.471 572.973 298.345 574.56C303.218 576.033 307.751 578.3 311.945 581.36C316.251 584.307 319.821 588.217 322.655 593.09C325.601 597.85 327.075 603.857 327.075 611.11C327.075 617.91 325.885 623.803 323.505 628.79C321.125 633.663 317.781 637.687 313.475 640.86C309.281 644.033 304.181 646.413 298.175 648C292.281 649.473 285.708 650.21 278.455 650.21C272.561 650.21 267.065 649.7 261.965 648.68C256.865 647.773 252.105 646.47 247.685 644.77C243.265 643.07 239.128 641.087 235.275 638.82C231.535 636.44 228.078 633.947 224.905 631.34C223.998 630.66 223.488 629.753 223.375 628.62C223.261 627.373 223.545 626.297 224.225 625.39L237.315 606.52C237.995 605.613 238.901 605.047 240.035 604.82C241.168 604.593 242.188 604.763 243.095 605.33ZM455.167 614.51H440.377C439.244 614.51 438.28 614.907 437.487 615.7C436.694 616.493 436.297 617.457 436.297 618.59V643.92C436.297 645.053 435.9 646.017 435.107 646.81C434.314 647.603 433.35 648 432.217 648H406.547C405.414 648 404.45 647.603 403.657 646.81C402.864 646.017 402.467 645.053 402.467 643.92V527.64C402.467 526.507 402.864 525.543 403.657 524.75C404.45 523.957 405.414 523.56 406.547 523.56H458.567C464.914 523.56 470.864 524.75 476.417 527.13C482.084 529.51 486.957 532.797 491.037 536.99C495.23 541.183 498.517 546.057 500.897 551.61C503.39 557.163 504.637 563.113 504.637 569.46C504.637 575.807 503.617 581.757 501.577 587.31C499.537 592.75 496.42 597.51 492.227 601.59C488.147 605.557 482.99 608.73 476.757 611.11C470.637 613.377 463.44 614.51 455.167 614.51ZM456.357 554.84H440.377C439.244 554.84 438.28 555.237 437.487 556.03C436.694 556.823 436.297 557.787 436.297 558.92V578.98C436.297 580.113 436.694 581.077 437.487 581.87C438.28 582.663 439.244 583.06 440.377 583.06H458.567C462.874 583.06 465.99 581.7 467.917 578.98C469.957 576.147 470.977 572.973 470.977 569.46C470.977 567.647 470.637 565.89 469.957 564.19C469.39 562.377 468.484 560.79 467.237 559.43C465.99 558.07 464.46 556.993 462.647 556.2C460.834 555.293 458.737 554.84 456.357 554.84ZM547.432 648H522.102C520.969 648 520.005 647.603 519.212 646.81C518.419 646.017 518.022 645.053 518.022 643.92V527.64C518.022 526.507 518.419 525.543 519.212 524.75C520.005 523.957 520.969 523.56 522.102 523.56H574.972C581.545 523.56 587.609 524.693 593.162 526.96C598.715 529.113 603.419 532.173 607.272 536.14C611.239 540.107 614.299 544.81 616.452 550.25C618.719 555.69 619.852 561.697 619.852 568.27C619.852 571.897 619.399 575.523 618.492 579.15C617.699 582.663 616.509 586.007 614.922 589.18C613.335 592.353 611.465 595.243 609.312 597.85C607.159 600.343 604.722 602.44 602.002 604.14C601.095 604.82 600.472 605.67 600.132 606.69C599.905 607.597 600.132 608.503 600.812 609.41C605.119 615.077 609.652 620.913 614.412 626.92C619.172 632.927 623.422 638.423 627.162 643.41C627.842 644.317 628.012 645.337 627.672 646.47C627.332 647.49 626.595 648 625.462 648H593.842C592.709 648 591.462 647.717 590.102 647.15C588.855 646.47 587.892 645.677 587.212 644.77C583.585 640.01 579.959 635.193 576.332 630.32C572.819 625.447 569.305 620.517 565.792 615.53C565.112 614.623 564.149 613.887 562.902 613.32C561.655 612.64 560.465 612.3 559.332 612.3H555.592C554.459 612.3 553.495 612.697 552.702 613.49C551.909 614.283 551.512 615.247 551.512 616.38V643.92C551.512 645.053 551.115 646.017 550.322 646.81C549.529 647.603 548.565 648 547.432 648ZM555.592 581.02H573.612C574.972 581.02 576.389 580.793 577.862 580.34C579.335 579.773 580.695 578.98 581.942 577.96C583.189 576.827 584.209 575.467 585.002 573.88C585.795 572.293 586.192 570.423 586.192 568.27C586.192 567.137 585.965 565.833 585.512 564.36C585.172 562.773 584.492 561.3 583.472 559.94C582.565 558.467 581.262 557.277 579.562 556.37C577.975 555.35 575.992 554.84 573.612 554.84H555.592C554.459 554.84 553.495 555.237 552.702 556.03C551.909 556.823 551.512 557.787 551.512 558.92V576.94C551.512 578.073 551.909 579.037 552.702 579.83C553.495 580.623 554.459 581.02 555.592 581.02ZM671.315 648H645.645C644.399 648 643.379 647.603 642.585 646.81C641.905 646.017 641.565 645.053 641.565 643.92V527.81C641.565 526.677 641.905 525.713 642.585 524.92C643.379 524.127 644.399 523.73 645.645 523.73H671.315C672.449 523.73 673.412 524.127 674.205 524.92C674.999 525.713 675.395 526.677 675.395 527.81V643.92C675.395 645.053 674.999 646.017 674.205 646.81C673.412 647.603 672.449 648 671.315 648ZM836.869 527.81V643.92C836.869 645.053 836.472 646.017 835.679 646.81C834.886 647.603 833.922 648 832.789 648H807.119C805.986 648 805.022 647.603 804.229 646.81C803.436 646.017 803.039 645.053 803.039 643.92V589.18C803.039 588.047 802.529 587.423 801.509 587.31C800.489 587.197 799.639 587.593 798.959 588.5L770.399 634.57C769.832 635.477 768.925 635.93 767.679 635.93C766.432 635.93 765.469 635.477 764.789 634.57L736.229 588.5C735.662 587.593 734.869 587.197 733.849 587.31C732.829 587.423 732.319 588.047 732.319 589.18V643.92C732.319 645.053 731.922 646.017 731.129 646.81C730.335 647.603 729.372 648 728.239 648H702.569C701.435 648 700.472 647.603 699.679 646.81C698.885 646.017 698.489 645.053 698.489 643.92V527.81C698.489 526.677 698.885 525.713 699.679 524.92C700.472 524.127 701.435 523.73 702.569 523.73H726.369C727.502 523.73 728.692 524.07 729.939 524.75C731.185 525.43 732.092 526.223 732.659 527.13L765.299 575.07C765.979 575.977 766.772 576.43 767.679 576.43C768.585 576.43 769.322 575.977 769.889 575.07L802.529 527.13C803.209 526.223 804.172 525.43 805.419 524.75C806.666 524.07 807.855 523.73 808.989 523.73H832.789C833.922 523.73 834.886 524.127 835.679 524.92C836.472 525.713 836.869 526.677 836.869 527.81ZM897.152 558.92V566.06C897.152 567.193 897.549 568.157 898.342 568.95C899.136 569.743 900.099 570.14 901.232 570.14H947.302C948.436 570.14 949.399 570.537 950.192 571.33C950.986 572.123 951.382 573.087 951.382 574.22V597.68C951.382 598.813 950.986 599.777 950.192 600.57C949.399 601.363 948.436 601.76 947.302 601.76H901.232C900.099 601.76 899.136 602.157 898.342 602.95C897.549 603.743 897.152 604.707 897.152 605.84V612.3C897.152 613.433 897.549 614.397 898.342 615.19C899.136 615.983 900.099 616.38 901.232 616.38H954.102C955.236 616.38 956.199 616.777 956.992 617.57C957.786 618.363 958.182 619.327 958.182 620.46V643.92C958.182 645.053 957.786 646.017 956.992 646.81C956.199 647.603 955.236 648 954.102 648H867.572C866.439 648 865.476 647.603 864.682 646.81C863.889 646.017 863.492 645.053 863.492 643.92V527.64C863.492 526.507 863.889 525.543 864.682 524.75C865.476 523.957 866.439 523.56 867.572 523.56H954.102C955.236 523.56 956.199 523.957 956.992 524.75C957.786 525.543 958.182 526.507 958.182 527.64V550.76C958.182 551.893 957.786 552.857 956.992 553.65C956.199 554.443 955.236 554.84 954.102 554.84H901.232C900.099 554.84 899.136 555.237 898.342 556.03C897.549 556.823 897.152 557.787 897.152 558.92Z" fill="white"/>
<path d="M77.2367 767.5C75.3034 770.633 73.1701 773.5 70.8367 776.1C68.5034 778.633 65.8701 780.8 62.9367 782.6C60.0701 784.4 56.8701 785.8 53.3367 786.8C49.8034 787.8 45.9034 788.3 41.6367 788.3C36.3034 788.3 31.3034 787.3 26.6367 785.3C21.9701 783.3 17.8701 780.6 14.3367 777.2C10.8701 773.8 8.13672 769.8 6.13672 765.2C4.13672 760.6 3.13672 755.7 3.13672 750.5C3.13672 745.3 4.13672 740.4 6.13672 735.8C8.13672 731.2 10.8701 727.2 14.3367 723.8C17.8701 720.4 21.9701 717.7 26.6367 715.7C31.3034 713.7 36.3034 712.7 41.6367 712.7C46.0367 712.7 50.0034 713.2 53.5367 714.2C57.0701 715.2 60.2701 716.6 63.1367 718.4C66.0034 720.2 68.5701 722.4 70.8367 725C73.1701 727.533 75.3034 730.333 77.2367 733.4C77.5701 733.933 77.6367 734.5 77.4367 735.1C77.2367 735.7 76.8367 736.133 76.2367 736.4L62.0367 742C61.3701 742.267 60.7034 742.267 60.0367 742C59.3701 741.733 58.8701 741.333 58.5367 740.8C56.6034 737.733 54.2701 735.4 51.5367 733.8C48.8034 732.133 45.5034 731.3 41.6367 731.3C39.1034 731.3 36.7034 731.833 34.4367 732.9C32.2367 733.967 30.3034 735.4 28.6367 737.2C26.9701 738.933 25.6701 740.967 24.7367 743.3C23.8034 745.633 23.3367 748.033 23.3367 750.5C23.3367 753.033 23.8034 755.467 24.7367 757.8C25.6701 760.067 26.9701 762.067 28.6367 763.8C30.3034 765.533 32.2367 766.933 34.4367 768C36.7034 769.067 39.1034 769.6 41.6367 769.6C45.3034 769.6 48.6034 768.733 51.5367 767C54.5367 765.2 56.9034 762.9 58.6367 760.1C58.9701 759.567 59.4367 759.167 60.0367 758.9C60.7034 758.633 61.3701 758.633 62.0367 758.9L76.2367 764.5C76.8367 764.767 77.2367 765.2 77.4367 765.8C77.6367 766.333 77.5701 766.9 77.2367 767.5ZM81.5594 750.4C81.5594 745.2 82.5594 740.3 84.5594 735.7C86.5594 731.1 89.2594 727.1 92.6594 723.7C96.0594 720.233 100.059 717.5 104.659 715.5C109.259 713.5 114.159 712.5 119.359 712.5C124.559 712.5 129.459 713.5 134.059 715.5C138.659 717.5 142.659 720.233 146.059 723.7C149.526 727.1 152.259 731.1 154.259 735.7C156.259 740.3 157.259 745.2 157.259 750.4C157.259 755.6 156.259 760.5 154.259 765.1C152.259 769.7 149.526 773.733 146.059 777.2C142.659 780.6 138.659 783.3 134.059 785.3C129.459 787.3 124.559 788.3 119.359 788.3C114.159 788.3 109.259 787.3 104.659 785.3C100.059 783.3 96.0594 780.6 92.6594 777.2C89.2594 773.733 86.5594 769.7 84.5594 765.1C82.5594 760.5 81.5594 755.6 81.5594 750.4ZM101.359 750.4C101.359 752.933 101.826 755.333 102.759 757.6C103.693 759.867 104.959 761.867 106.559 763.6C108.226 765.333 110.159 766.733 112.359 767.8C114.559 768.8 116.893 769.3 119.359 769.3C121.826 769.3 124.159 768.8 126.359 767.8C128.559 766.733 130.493 765.333 132.159 763.6C133.826 761.867 135.126 759.867 136.059 757.6C136.993 755.333 137.459 752.933 137.459 750.4C137.459 747.933 136.993 745.567 136.059 743.3C135.126 740.967 133.826 738.967 132.159 737.3C130.493 735.567 128.559 734.2 126.359 733.2C124.159 732.133 121.826 731.6 119.359 731.6C116.893 731.6 114.559 732.133 112.359 733.2C110.159 734.2 108.226 735.567 106.559 737.3C104.959 738.967 103.693 740.967 102.759 743.3C101.826 745.567 101.359 747.933 101.359 750.4ZM236.372 716.2V784.6C236.372 785.267 236.139 785.833 235.672 786.3C235.205 786.767 234.639 787 233.972 787H219.172C218.505 787 217.805 786.8 217.072 786.4C216.339 786 215.772 785.533 215.372 785L189.272 748.3C188.872 747.767 188.439 747.567 187.972 747.7C187.572 747.767 187.372 748.133 187.372 748.8V784.6C187.372 785.267 187.139 785.833 186.672 786.3C186.205 786.767 185.639 787 184.972 787H170.072C169.405 787 168.839 786.767 168.372 786.3C167.905 785.833 167.672 785.267 167.672 784.6V716.2C167.672 715.533 167.905 714.967 168.372 714.5C168.839 714.033 169.405 713.8 170.072 713.8H185.072C185.739 713.8 186.439 714 187.172 714.4C187.905 714.733 188.472 715.167 188.872 715.7L214.872 752.4C215.272 752.933 215.672 753.167 216.072 753.1C216.539 753.033 216.772 752.667 216.772 752V716.2C216.772 715.533 217.005 714.967 217.472 714.5C217.939 714.033 218.505 713.8 219.172 713.8H233.972C234.639 713.8 235.205 714.033 235.672 714.5C236.139 714.967 236.372 715.533 236.372 716.2ZM300.336 732.2H286.336C285.669 732.2 285.103 732.433 284.636 732.9C284.169 733.367 283.936 733.933 283.936 734.6V784.6C283.936 785.267 283.703 785.833 283.236 786.3C282.836 786.767 282.269 787 281.536 787H266.536C265.869 787 265.303 786.767 264.836 786.3C264.369 785.833 264.136 785.267 264.136 784.6V734.6C264.136 733.933 263.903 733.367 263.436 732.9C263.036 732.433 262.469 732.2 261.736 732.2H247.536C246.869 732.2 246.303 731.967 245.836 731.5C245.369 731.033 245.136 730.467 245.136 729.8V716.2C245.136 715.533 245.369 714.967 245.836 714.5C246.303 714.033 246.869 713.8 247.536 713.8H300.336C301.069 713.8 301.636 714.033 302.036 714.5C302.503 714.967 302.736 715.533 302.736 716.2V729.8C302.736 730.467 302.503 731.033 302.036 731.5C301.636 731.967 301.069 732.2 300.336 732.2ZM324.23 716.1C324.497 715.5 324.93 715 325.53 714.6C326.197 714.133 326.897 713.9 327.63 713.9H341.63C342.297 713.9 342.93 714.133 343.53 714.6C344.197 715 344.664 715.5 344.93 716.1L374.13 784.1C374.397 784.7 374.33 785.333 373.93 786C373.597 786.667 372.897 787 371.83 787H354.73C353.997 787 353.297 786.8 352.63 786.4C352.03 785.933 351.564 785.4 351.23 784.8L348.53 778.8C348.197 778.2 347.697 777.7 347.03 777.3C346.43 776.833 345.797 776.6 345.13 776.6H324.03C323.297 776.6 322.597 776.833 321.93 777.3C321.33 777.7 320.897 778.2 320.63 778.8L317.83 784.8C317.564 785.4 317.097 785.933 316.43 786.4C315.83 786.8 315.197 787 314.53 787H297.33C296.997 787 296.664 786.933 296.33 786.8C295.93 786.667 295.63 786.467 295.43 786.2C295.164 785.933 294.997 785.6 294.93 785.2C294.864 784.8 294.964 784.333 295.23 783.8L324.23 716.1ZM330.13 759.6H339.03C339.697 759.6 340.164 759.4 340.43 759C340.764 758.533 340.764 758 340.43 757.4C339.764 755.733 338.964 753.8 338.03 751.6C337.097 749.333 336.23 747.233 335.43 745.3C335.164 744.7 334.864 744.4 334.53 744.4C334.197 744.4 333.897 744.7 333.63 745.3L328.63 757.4C328.364 758 328.364 758.533 328.63 759C328.897 759.4 329.397 759.6 330.13 759.6ZM431.246 749.3C432.313 749.9 433.379 750.633 434.446 751.5C435.513 752.367 436.479 753.433 437.346 754.7C438.279 755.967 439.013 757.433 439.546 759.1C440.146 760.767 440.446 762.667 440.446 764.8C440.446 769.133 439.746 772.733 438.346 775.6C437.013 778.4 435.179 780.667 432.846 782.4C430.513 784.067 427.813 785.267 424.746 786C421.746 786.667 418.579 787 415.246 787H383.546C382.879 787 382.313 786.767 381.846 786.3C381.379 785.833 381.146 785.267 381.146 784.6V716.2C381.146 715.533 381.379 714.967 381.846 714.5C382.313 714.033 382.879 713.8 383.546 713.8H413.746C416.946 713.8 420.013 714.167 422.946 714.9C425.879 715.567 428.446 716.7 430.646 718.3C432.913 719.9 434.713 722 436.046 724.6C437.446 727.133 438.146 730.267 438.146 734C438.146 737 437.379 739.6 435.846 741.8C434.379 744 432.779 745.733 431.046 747C429.846 747.867 429.913 748.633 431.246 749.3ZM403.346 741.6H412.646C413.979 741.6 415.046 741.1 415.846 740.1C416.646 739.033 417.046 737.867 417.046 736.6C417.046 735.4 416.546 734.367 415.546 733.5C414.613 732.633 413.713 732.2 412.846 732.2H403.346C402.679 732.2 402.113 732.433 401.646 732.9C401.179 733.367 400.946 733.933 400.946 734.6V739.2C400.946 739.867 401.179 740.433 401.646 740.9C402.113 741.367 402.679 741.6 403.346 741.6ZM413.846 758.1H403.346C402.679 758.1 402.113 758.333 401.646 758.8C401.179 759.267 400.946 759.833 400.946 760.5V766.2C400.946 766.867 401.179 767.433 401.646 767.9C402.113 768.367 402.679 768.6 403.346 768.6H414.546C415.746 768.6 416.879 768.1 417.946 767.1C419.013 766.1 419.546 764.933 419.546 763.6C419.546 762.4 419.013 761.2 417.946 760C416.946 758.733 415.579 758.1 413.846 758.1ZM469.563 787H454.463C453.73 787 453.13 786.767 452.663 786.3C452.263 785.833 452.063 785.267 452.063 784.6V716.3C452.063 715.633 452.263 715.067 452.663 714.6C453.13 714.133 453.73 713.9 454.463 713.9H469.563C470.23 713.9 470.797 714.133 471.263 714.6C471.73 715.067 471.963 715.633 471.963 716.3V784.6C471.963 785.267 471.73 785.833 471.263 786.3C470.797 786.767 470.23 787 469.563 787ZM539.848 771V784.6C539.848 785.267 539.614 785.833 539.148 786.3C538.681 786.767 538.114 787 537.448 787H487.548C486.814 787 486.214 786.767 485.748 786.3C485.348 785.833 485.148 785.267 485.148 784.6V716.2C485.148 715.533 485.348 714.967 485.748 714.5C486.214 714.033 486.814 713.8 487.548 713.8H502.548C503.214 713.8 503.781 714.033 504.248 714.5C504.714 714.967 504.948 715.533 504.948 716.2V766.2C504.948 766.867 505.148 767.433 505.548 767.9C506.014 768.367 506.614 768.6 507.348 768.6H537.448C538.114 768.6 538.681 768.833 539.148 769.3C539.614 769.767 539.848 770.333 539.848 771ZM565.071 787H549.971C549.238 787 548.638 786.767 548.171 786.3C547.771 785.833 547.571 785.267 547.571 784.6V716.3C547.571 715.633 547.771 715.067 548.171 714.6C548.638 714.133 549.238 713.9 549.971 713.9H565.071C565.738 713.9 566.304 714.133 566.771 714.6C567.238 715.067 567.471 715.633 567.471 716.3V784.6C567.471 785.267 567.238 785.833 566.771 786.3C566.304 786.767 565.738 787 565.071 787ZM580.955 784.6V716.2C580.955 715.533 581.189 714.967 581.655 714.5C582.122 714.033 582.689 713.8 583.355 713.8H610.655C621.122 713.8 629.689 716.867 636.355 723C639.955 726.333 642.689 730.3 644.555 734.9C646.422 739.5 647.355 744.667 647.355 750.4C647.355 756.133 646.422 761.333 644.555 766C642.689 770.6 639.955 774.567 636.355 777.9C633.022 780.9 629.189 783.167 624.855 784.7C620.589 786.233 615.855 787 610.655 787H583.355C582.689 787 582.122 786.767 581.655 786.3C581.189 785.833 580.955 785.267 580.955 784.6ZM603.155 768.6H610.655C612.522 768.6 614.455 768.367 616.455 767.9C618.455 767.433 620.255 766.567 621.855 765.3C623.455 763.967 624.755 762.133 625.755 759.8C626.822 757.4 627.355 754.3 627.355 750.5C627.355 746.7 626.822 743.633 625.755 741.3C624.755 738.9 623.422 737.067 621.755 735.8C620.155 734.467 618.355 733.567 616.355 733.1C614.422 732.633 612.522 732.4 610.655 732.4H603.155C602.489 732.4 601.922 732.633 601.455 733.1C600.989 733.567 600.755 734.133 600.755 734.8V766.2C600.755 766.867 600.989 767.433 601.455 767.9C601.922 768.367 602.489 768.6 603.155 768.6ZM673.156 716.1C673.423 715.5 673.856 715 674.456 714.6C675.123 714.133 675.823 713.9 676.556 713.9H690.556C691.223 713.9 691.856 714.133 692.456 714.6C693.123 715 693.59 715.5 693.856 716.1L723.056 784.1C723.323 784.7 723.256 785.333 722.856 786C722.523 786.667 721.823 787 720.756 787H703.656C702.923 787 702.223 786.8 701.556 786.4C700.956 785.933 700.49 785.4 700.156 784.8L697.456 778.8C697.123 778.2 696.623 777.7 695.956 777.3C695.356 776.833 694.723 776.6 694.056 776.6H672.956C672.223 776.6 671.523 776.833 670.856 777.3C670.256 777.7 669.823 778.2 669.556 778.8L666.756 784.8C666.49 785.4 666.023 785.933 665.356 786.4C664.756 786.8 664.123 787 663.456 787H646.256C645.923 787 645.59 786.933 645.256 786.8C644.856 786.667 644.556 786.467 644.356 786.2C644.09 785.933 643.923 785.6 643.856 785.2C643.79 784.8 643.89 784.333 644.156 783.8L673.156 716.1ZM679.056 759.6H687.956C688.623 759.6 689.09 759.4 689.356 759C689.69 758.533 689.69 758 689.356 757.4C688.69 755.733 687.89 753.8 686.956 751.6C686.023 749.333 685.156 747.233 684.356 745.3C684.09 744.7 683.79 744.4 683.456 744.4C683.123 744.4 682.823 744.7 682.556 745.3L677.556 757.4C677.29 758 677.29 758.533 677.556 759C677.823 759.4 678.323 759.6 679.056 759.6ZM730.272 784.6V716.2C730.272 715.533 730.505 714.967 730.972 714.5C731.439 714.033 732.005 713.8 732.672 713.8H759.972C770.439 713.8 779.005 716.867 785.672 723C789.272 726.333 792.005 730.3 793.872 734.9C795.739 739.5 796.672 744.667 796.672 750.4C796.672 756.133 795.739 761.333 793.872 766C792.005 770.6 789.272 774.567 785.672 777.9C782.339 780.9 778.505 783.167 774.172 784.7C769.905 786.233 765.172 787 759.972 787H732.672C732.005 787 731.439 786.767 730.972 786.3C730.505 785.833 730.272 785.267 730.272 784.6ZM752.472 768.6H759.972C761.839 768.6 763.772 768.367 765.772 767.9C767.772 767.433 769.572 766.567 771.172 765.3C772.772 763.967 774.072 762.133 775.072 759.8C776.139 757.4 776.672 754.3 776.672 750.5C776.672 746.7 776.139 743.633 775.072 741.3C774.072 738.9 772.739 737.067 771.072 735.8C769.472 734.467 767.672 733.567 765.672 733.1C763.739 732.633 761.839 732.4 759.972 732.4H752.472C751.805 732.4 751.239 732.633 750.772 733.1C750.305 733.567 750.072 734.133 750.072 734.8V766.2C750.072 766.867 750.305 767.433 750.772 767.9C751.239 768.367 751.805 768.6 752.472 768.6ZM825.26 734.6V738.8C825.26 739.467 825.493 740.033 825.96 740.5C826.427 740.967 826.993 741.2 827.66 741.2H854.76C855.427 741.2 855.993 741.433 856.46 741.9C856.927 742.367 857.16 742.933 857.16 743.6V757.4C857.16 758.067 856.927 758.633 856.46 759.1C855.993 759.567 855.427 759.8 854.76 759.8H827.66C826.993 759.8 826.427 760.033 825.96 760.5C825.493 760.967 825.26 761.533 825.26 762.2V766C825.26 766.667 825.493 767.233 825.96 767.7C826.427 768.167 826.993 768.4 827.66 768.4H858.76C859.427 768.4 859.993 768.633 860.46 769.1C860.927 769.567 861.16 770.133 861.16 770.8V784.6C861.16 785.267 860.927 785.833 860.46 786.3C859.993 786.767 859.427 787 858.76 787H807.86C807.193 787 806.627 786.767 806.16 786.3C805.693 785.833 805.46 785.267 805.46 784.6V716.2C805.46 715.533 805.693 714.967 806.16 714.5C806.627 714.033 807.193 713.8 807.86 713.8H858.76C859.427 713.8 859.993 714.033 860.46 714.5C860.927 714.967 861.16 715.533 861.16 716.2V729.8C861.16 730.467 860.927 731.033 860.46 731.5C859.993 731.967 859.427 732.2 858.76 732.2H827.66C826.993 732.2 826.427 732.433 825.96 732.9C825.493 733.367 825.26 733.933 825.26 734.6ZM927.702 734.6V738.8C927.702 739.467 927.935 740.033 928.402 740.5C928.868 740.967 929.435 741.2 930.102 741.2H957.202C957.868 741.2 958.435 741.433 958.902 741.9C959.368 742.367 959.602 742.933 959.602 743.6V757.4C959.602 758.067 959.368 758.633 958.902 759.1C958.435 759.567 957.868 759.8 957.202 759.8H930.102C929.435 759.8 928.868 760.033 928.402 760.5C927.935 760.967 927.702 761.533 927.702 762.2V766C927.702 766.667 927.935 767.233 928.402 767.7C928.868 768.167 929.435 768.4 930.102 768.4H961.202C961.868 768.4 962.435 768.633 962.902 769.1C963.368 769.567 963.602 770.133 963.602 770.8V784.6C963.602 785.267 963.368 785.833 962.902 786.3C962.435 786.767 961.868 787 961.202 787H910.302C909.635 787 909.068 786.767 908.602 786.3C908.135 785.833 907.902 785.267 907.902 784.6V716.2C907.902 715.533 908.135 714.967 908.602 714.5C909.068 714.033 909.635 713.8 910.302 713.8H961.202C961.868 713.8 962.435 714.033 962.902 714.5C963.368 714.967 963.602 715.533 963.602 716.2V729.8C963.602 730.467 963.368 731.033 962.902 731.5C962.435 731.967 961.868 732.2 961.202 732.2H930.102C929.435 732.2 928.868 732.433 928.402 732.9C927.935 733.367 927.702 733.933 927.702 734.6ZM123.77 868.5C121.837 871.633 119.703 874.5 117.37 877.1C115.037 879.633 112.403 881.8 109.47 883.6C106.603 885.4 103.403 886.8 99.8699 887.8C96.3366 888.8 92.4366 889.3 88.1699 889.3C82.8366 889.3 77.8366 888.3 73.1699 886.3C68.5033 884.3 64.4033 881.6 60.8699 878.2C57.4033 874.8 54.6699 870.8 52.6699 866.2C50.6699 861.6 49.6699 856.7 49.6699 851.5C49.6699 846.3 50.6699 841.4 52.6699 836.8C54.6699 832.2 57.4033 828.2 60.8699 824.8C64.4033 821.4 68.5033 818.7 73.1699 816.7C77.8366 814.7 82.8366 813.7 88.1699 813.7C92.5699 813.7 96.5366 814.2 100.07 815.2C103.603 816.2 106.803 817.6 109.67 819.4C112.537 821.2 115.103 823.4 117.37 826C119.703 828.533 121.837 831.333 123.77 834.4C124.103 834.933 124.17 835.5 123.97 836.1C123.77 836.7 123.37 837.133 122.77 837.4L108.57 843C107.903 843.267 107.237 843.267 106.57 843C105.903 842.733 105.403 842.333 105.07 841.8C103.137 838.733 100.803 836.4 98.0699 834.8C95.3366 833.133 92.0366 832.3 88.1699 832.3C85.6366 832.3 83.2366 832.833 80.9699 833.9C78.7699 834.967 76.8366 836.4 75.1699 838.2C73.5033 839.933 72.2033 841.967 71.2699 844.3C70.3366 846.633 69.8699 849.033 69.8699 851.5C69.8699 854.033 70.3366 856.467 71.2699 858.8C72.2033 861.067 73.5033 863.067 75.1699 864.8C76.8366 866.533 78.7699 867.933 80.9699 869C83.2366 870.067 85.6366 870.6 88.1699 870.6C91.8366 870.6 95.1366 869.733 98.0699 868C101.07 866.2 103.437 863.9 105.17 861.1C105.503 860.567 105.97 860.167 106.57 859.9C107.237 859.633 107.903 859.633 108.57 859.9L122.77 865.5C123.37 865.767 123.77 866.2 123.97 866.8C124.17 867.333 124.103 867.9 123.77 868.5ZM150.993 835.6V839.8C150.993 840.467 151.226 841.033 151.693 841.5C152.159 841.967 152.726 842.2 153.393 842.2H180.493C181.159 842.2 181.726 842.433 182.193 842.9C182.659 843.367 182.893 843.933 182.893 844.6V858.4C182.893 859.067 182.659 859.633 182.193 860.1C181.726 860.567 181.159 860.8 180.493 860.8H153.393C152.726 860.8 152.159 861.033 151.693 861.5C151.226 861.967 150.993 862.533 150.993 863.2V867C150.993 867.667 151.226 868.233 151.693 868.7C152.159 869.167 152.726 869.4 153.393 869.4H184.493C185.159 869.4 185.726 869.633 186.193 870.1C186.659 870.567 186.893 871.133 186.893 871.8V885.6C186.893 886.267 186.659 886.833 186.193 887.3C185.726 887.767 185.159 888 184.493 888H133.593C132.926 888 132.359 887.767 131.893 887.3C131.426 886.833 131.193 886.267 131.193 885.6V817.2C131.193 816.533 131.426 815.967 131.893 815.5C132.359 815.033 132.926 814.8 133.593 814.8H184.493C185.159 814.8 185.726 815.033 186.193 815.5C186.659 815.967 186.893 816.533 186.893 817.2V830.8C186.893 831.467 186.659 832.033 186.193 832.5C185.726 832.967 185.159 833.2 184.493 833.2H153.393C152.726 833.2 152.159 833.433 151.693 833.9C151.226 834.367 150.993 834.933 150.993 835.6ZM216.954 888H202.054C201.388 888 200.821 887.767 200.354 887.3C199.888 886.833 199.654 886.267 199.654 885.6V817.2C199.654 816.533 199.888 815.967 200.354 815.5C200.821 815.033 201.388 814.8 202.054 814.8H233.154C237.021 814.8 240.588 815.467 243.854 816.8C247.121 818.067 249.888 819.867 252.154 822.2C254.488 824.533 256.288 827.3 257.554 830.5C258.888 833.7 259.554 837.233 259.554 841.1C259.554 843.233 259.288 845.367 258.754 847.5C258.288 849.567 257.588 851.533 256.654 853.4C255.721 855.267 254.621 856.967 253.354 858.5C252.088 859.967 250.654 861.2 249.054 862.2C248.521 862.6 248.154 863.1 247.954 863.7C247.821 864.233 247.954 864.767 248.354 865.3C250.888 868.633 253.554 872.067 256.354 875.6C259.154 879.133 261.654 882.367 263.854 885.3C264.254 885.833 264.354 886.433 264.154 887.1C263.954 887.7 263.521 888 262.854 888H244.254C243.588 888 242.854 887.833 242.054 887.5C241.321 887.1 240.754 886.633 240.354 886.1C238.221 883.3 236.088 880.467 233.954 877.6C231.888 874.733 229.821 871.833 227.754 868.9C227.354 868.367 226.788 867.933 226.054 867.6C225.321 867.2 224.621 867 223.954 867H221.754C221.088 867 220.521 867.233 220.054 867.7C219.588 868.167 219.354 868.733 219.354 869.4V885.6C219.354 886.267 219.121 886.833 218.654 887.3C218.188 887.767 217.621 888 216.954 888ZM221.754 848.6H232.354C233.154 848.6 233.988 848.467 234.854 848.2C235.721 847.867 236.521 847.4 237.254 846.8C237.988 846.133 238.588 845.333 239.054 844.4C239.521 843.467 239.754 842.367 239.754 841.1C239.754 840.433 239.621 839.667 239.354 838.8C239.154 837.867 238.754 837 238.154 836.2C237.621 835.333 236.854 834.633 235.854 834.1C234.921 833.5 233.754 833.2 232.354 833.2H221.754C221.088 833.2 220.521 833.433 220.054 833.9C219.588 834.367 219.354 834.933 219.354 835.6V846.2C219.354 846.867 219.588 847.433 220.054 847.9C220.521 848.367 221.088 848.6 221.754 848.6ZM319.428 833.2H305.428C304.761 833.2 304.194 833.433 303.728 833.9C303.261 834.367 303.028 834.933 303.028 835.6V885.6C303.028 886.267 302.794 886.833 302.328 887.3C301.928 887.767 301.361 888 300.628 888H285.628C284.961 888 284.394 887.767 283.928 887.3C283.461 886.833 283.228 886.267 283.228 885.6V835.6C283.228 834.933 282.994 834.367 282.528 833.9C282.128 833.433 281.561 833.2 280.828 833.2H266.628C265.961 833.2 265.394 832.967 264.928 832.5C264.461 832.033 264.228 831.467 264.228 830.8V817.2C264.228 816.533 264.461 815.967 264.928 815.5C265.394 815.033 265.961 814.8 266.628 814.8H319.428C320.161 814.8 320.728 815.033 321.128 815.5C321.594 815.967 321.828 816.533 321.828 817.2V830.8C321.828 831.467 321.594 832.033 321.128 832.5C320.728 832.967 320.161 833.2 319.428 833.2ZM347.835 888H332.735C332.001 888 331.401 887.767 330.935 887.3C330.535 886.833 330.335 886.267 330.335 885.6V817.3C330.335 816.633 330.535 816.067 330.935 815.6C331.401 815.133 332.001 814.9 332.735 814.9H347.835C348.501 814.9 349.068 815.133 349.535 815.6C350.001 816.067 350.235 816.633 350.235 817.3V885.6C350.235 886.267 350.001 886.833 349.535 887.3C349.068 887.767 348.501 888 347.835 888ZM383.319 835.7V839.9C383.319 840.567 383.552 841.133 384.019 841.6C384.486 842.067 385.052 842.3 385.719 842.3H412.719C413.386 842.3 413.952 842.533 414.419 843C414.886 843.467 415.119 844.033 415.119 844.7V858.7C415.119 859.367 414.886 859.933 414.419 860.4C413.952 860.867 413.386 861.1 412.719 861.1H385.719C385.052 861.1 384.486 861.333 384.019 861.8C383.552 862.267 383.319 862.833 383.319 863.5V885.6C383.319 886.267 383.086 886.833 382.619 887.3C382.152 887.767 381.586 888 380.919 888H365.819C365.152 888 364.586 887.767 364.119 887.3C363.652 886.833 363.419 886.267 363.419 885.6V817.2C363.419 816.533 363.652 815.967 364.119 815.5C364.586 815.033 365.152 814.8 365.819 814.8H416.719C417.386 814.8 417.952 815.033 418.419 815.5C418.886 815.967 419.119 816.533 419.119 817.2V830.9C419.119 831.567 418.886 832.133 418.419 832.6C417.952 833.067 417.386 833.3 416.719 833.3H385.719C385.052 833.3 384.486 833.533 384.019 834C383.552 834.467 383.319 835.033 383.319 835.7ZM447.054 888H431.954C431.22 888 430.62 887.767 430.154 887.3C429.754 886.833 429.554 886.267 429.554 885.6V817.3C429.554 816.633 429.754 816.067 430.154 815.6C430.62 815.133 431.22 814.9 431.954 814.9H447.054C447.72 814.9 448.287 815.133 448.754 815.6C449.22 816.067 449.454 816.633 449.454 817.3V885.6C449.454 886.267 449.22 886.833 448.754 887.3C448.287 887.767 447.72 888 447.054 888ZM533.438 868.5C531.505 871.633 529.371 874.5 527.038 877.1C524.705 879.633 522.071 881.8 519.138 883.6C516.271 885.4 513.071 886.8 509.538 887.8C506.005 888.8 502.105 889.3 497.838 889.3C492.505 889.3 487.505 888.3 482.838 886.3C478.171 884.3 474.071 881.6 470.538 878.2C467.071 874.8 464.338 870.8 462.338 866.2C460.338 861.6 459.338 856.7 459.338 851.5C459.338 846.3 460.338 841.4 462.338 836.8C464.338 832.2 467.071 828.2 470.538 824.8C474.071 821.4 478.171 818.7 482.838 816.7C487.505 814.7 492.505 813.7 497.838 813.7C502.238 813.7 506.205 814.2 509.738 815.2C513.271 816.2 516.471 817.6 519.338 819.4C522.205 821.2 524.771 823.4 527.038 826C529.371 828.533 531.505 831.333 533.438 834.4C533.771 834.933 533.838 835.5 533.638 836.1C533.438 836.7 533.038 837.133 532.438 837.4L518.238 843C517.571 843.267 516.905 843.267 516.238 843C515.571 842.733 515.071 842.333 514.738 841.8C512.805 838.733 510.471 836.4 507.738 834.8C505.005 833.133 501.705 832.3 497.838 832.3C495.305 832.3 492.905 832.833 490.638 833.9C488.438 834.967 486.505 836.4 484.838 838.2C483.171 839.933 481.871 841.967 480.938 844.3C480.005 846.633 479.538 849.033 479.538 851.5C479.538 854.033 480.005 856.467 480.938 858.8C481.871 861.067 483.171 863.067 484.838 864.8C486.505 866.533 488.438 867.933 490.638 869C492.905 870.067 495.305 870.6 497.838 870.6C501.505 870.6 504.805 869.733 507.738 868C510.738 866.2 513.105 863.9 514.838 861.1C515.171 860.567 515.638 860.167 516.238 859.9C516.905 859.633 517.571 859.633 518.238 859.9L532.438 865.5C533.038 865.767 533.438 866.2 533.638 866.8C533.838 867.333 533.771 867.9 533.438 868.5ZM559.436 817.1C559.702 816.5 560.136 816 560.736 815.6C561.402 815.133 562.102 814.9 562.836 814.9H576.836C577.502 814.9 578.136 815.133 578.736 815.6C579.402 816 579.869 816.5 580.136 817.1L609.336 885.1C609.602 885.7 609.536 886.333 609.136 887C608.802 887.667 608.102 888 607.036 888H589.936C589.202 888 588.502 887.8 587.836 887.4C587.236 886.933 586.769 886.4 586.436 885.8L583.736 879.8C583.402 879.2 582.902 878.7 582.236 878.3C581.636 877.833 581.002 877.6 580.336 877.6H559.236C558.502 877.6 557.802 877.833 557.136 878.3C556.536 878.7 556.102 879.2 555.836 879.8L553.036 885.8C552.769 886.4 552.302 886.933 551.636 887.4C551.036 887.8 550.402 888 549.736 888H532.536C532.202 888 531.869 887.933 531.536 887.8C531.136 887.667 530.836 887.467 530.636 887.2C530.369 886.933 530.202 886.6 530.136 886.2C530.069 885.8 530.169 885.333 530.436 884.8L559.436 817.1ZM565.336 860.6H574.236C574.902 860.6 575.369 860.4 575.636 860C575.969 859.533 575.969 859 575.636 858.4C574.969 856.733 574.169 854.8 573.236 852.6C572.302 850.333 571.436 848.233 570.636 846.3C570.369 845.7 570.069 845.4 569.736 845.4C569.402 845.4 569.102 845.7 568.836 846.3L563.836 858.4C563.569 859 563.569 859.533 563.836 860C564.102 860.4 564.602 860.6 565.336 860.6ZM616.551 885.6V817.2C616.551 816.533 616.785 815.967 617.251 815.5C617.718 815.033 618.285 814.8 618.951 814.8H646.251C656.718 814.8 665.285 817.867 671.951 824C675.551 827.333 678.285 831.3 680.151 835.9C682.018 840.5 682.951 845.667 682.951 851.4C682.951 857.133 682.018 862.333 680.151 867C678.285 871.6 675.551 875.567 671.951 878.9C668.618 881.9 664.785 884.167 660.451 885.7C656.185 887.233 651.451 888 646.251 888H618.951C618.285 888 617.718 887.767 617.251 887.3C616.785 886.833 616.551 886.267 616.551 885.6ZM638.751 869.6H646.251C648.118 869.6 650.051 869.367 652.051 868.9C654.051 868.433 655.851 867.567 657.451 866.3C659.051 864.967 660.351 863.133 661.351 860.8C662.418 858.4 662.951 855.3 662.951 851.5C662.951 847.7 662.418 844.633 661.351 842.3C660.351 839.9 659.018 838.067 657.351 836.8C655.751 835.467 653.951 834.567 651.951 834.1C650.018 833.633 648.118 833.4 646.251 833.4H638.751C638.085 833.4 637.518 833.633 637.051 834.1C636.585 834.567 636.351 835.133 636.351 835.8V867.2C636.351 867.867 636.585 868.433 637.051 868.9C637.518 869.367 638.085 869.6 638.751 869.6ZM691.764 851.4C691.764 846.2 692.764 841.3 694.764 836.7C696.764 832.1 699.464 828.1 702.864 824.7C706.264 821.233 710.264 818.5 714.864 816.5C719.464 814.5 724.364 813.5 729.564 813.5C734.764 813.5 739.664 814.5 744.264 816.5C748.864 818.5 752.864 821.233 756.264 824.7C759.731 828.1 762.464 832.1 764.464 836.7C766.464 841.3 767.464 846.2 767.464 851.4C767.464 856.6 766.464 861.5 764.464 866.1C762.464 870.7 759.731 874.733 756.264 878.2C752.864 881.6 748.864 884.3 744.264 886.3C739.664 888.3 734.764 889.3 729.564 889.3C724.364 889.3 719.464 888.3 714.864 886.3C710.264 884.3 706.264 881.6 702.864 878.2C699.464 874.733 696.764 870.7 694.764 866.1C692.764 861.5 691.764 856.6 691.764 851.4ZM711.564 851.4C711.564 853.933 712.031 856.333 712.964 858.6C713.898 860.867 715.164 862.867 716.764 864.6C718.431 866.333 720.364 867.733 722.564 868.8C724.764 869.8 727.098 870.3 729.564 870.3C732.031 870.3 734.364 869.8 736.564 868.8C738.764 867.733 740.698 866.333 742.364 864.6C744.031 862.867 745.331 860.867 746.264 858.6C747.198 856.333 747.664 853.933 747.664 851.4C747.664 848.933 747.198 846.567 746.264 844.3C745.331 841.967 744.031 839.967 742.364 838.3C740.698 836.567 738.764 835.2 736.564 834.2C734.364 833.133 732.031 832.6 729.564 832.6C727.098 832.6 724.764 833.133 722.564 834.2C720.364 835.2 718.431 836.567 716.764 838.3C715.164 839.967 713.898 841.967 712.964 844.3C712.031 846.567 711.564 848.933 711.564 851.4ZM795.177 888H780.277C779.61 888 779.044 887.767 778.577 887.3C778.11 886.833 777.877 886.267 777.877 885.6V817.2C777.877 816.533 778.11 815.967 778.577 815.5C779.044 815.033 779.61 814.8 780.277 814.8H811.377C815.244 814.8 818.81 815.467 822.077 816.8C825.344 818.067 828.11 819.867 830.377 822.2C832.71 824.533 834.51 827.3 835.777 830.5C837.11 833.7 837.777 837.233 837.777 841.1C837.777 843.233 837.51 845.367 836.977 847.5C836.51 849.567 835.81 851.533 834.877 853.4C833.944 855.267 832.844 856.967 831.577 858.5C830.31 859.967 828.877 861.2 827.277 862.2C826.744 862.6 826.377 863.1 826.177 863.7C826.044 864.233 826.177 864.767 826.577 865.3C829.11 868.633 831.777 872.067 834.577 875.6C837.377 879.133 839.877 882.367 842.077 885.3C842.477 885.833 842.577 886.433 842.377 887.1C842.177 887.7 841.744 888 841.077 888H822.477C821.81 888 821.077 887.833 820.277 887.5C819.544 887.1 818.977 886.633 818.577 886.1C816.444 883.3 814.31 880.467 812.177 877.6C810.11 874.733 808.044 871.833 805.977 868.9C805.577 868.367 805.01 867.933 804.277 867.6C803.544 867.2 802.844 867 802.177 867H799.977C799.31 867 798.744 867.233 798.277 867.7C797.81 868.167 797.577 868.733 797.577 869.4V885.6C797.577 886.267 797.344 886.833 796.877 887.3C796.41 887.767 795.844 888 795.177 888ZM799.977 848.6H810.577C811.377 848.6 812.21 848.467 813.077 848.2C813.944 847.867 814.744 847.4 815.477 846.8C816.21 846.133 816.81 845.333 817.277 844.4C817.744 843.467 817.977 842.367 817.977 841.1C817.977 840.433 817.844 839.667 817.577 838.8C817.377 837.867 816.977 837 816.377 836.2C815.844 835.333 815.077 834.633 814.077 834.1C813.144 833.5 811.977 833.2 810.577 833.2H799.977C799.31 833.2 798.744 833.433 798.277 833.9C797.81 834.367 797.577 834.933 797.577 835.6V846.2C797.577 846.867 797.81 847.433 798.277 847.9C798.744 848.367 799.31 848.6 799.977 848.6ZM872.814 817.1C873.081 816.5 873.514 816 874.114 815.6C874.781 815.133 875.481 814.9 876.214 814.9H890.214C890.881 814.9 891.514 815.133 892.114 815.6C892.781 816 893.248 816.5 893.514 817.1L922.714 885.1C922.981 885.7 922.914 886.333 922.514 887C922.181 887.667 921.481 888 920.414 888H903.314C902.581 888 901.881 887.8 901.214 887.4C900.614 886.933 900.148 886.4 899.814 885.8L897.114 879.8C896.781 879.2 896.281 878.7 895.614 878.3C895.014 877.833 894.381 877.6 893.714 877.6H872.614C871.881 877.6 871.181 877.833 870.514 878.3C869.914 878.7 869.481 879.2 869.214 879.8L866.414 885.8C866.148 886.4 865.681 886.933 865.014 887.4C864.414 887.8 863.781 888 863.114 888H845.914C845.581 888 845.248 887.933 844.914 887.8C844.514 887.667 844.214 887.467 844.014 887.2C843.748 886.933 843.581 886.6 843.514 886.2C843.448 885.8 843.548 885.333 843.814 884.8L872.814 817.1ZM878.714 860.6H887.614C888.281 860.6 888.748 860.4 889.014 860C889.348 859.533 889.348 859 889.014 858.4C888.348 856.733 887.548 854.8 886.614 852.6C885.681 850.333 884.814 848.233 884.014 846.3C883.748 845.7 883.448 845.4 883.114 845.4C882.781 845.4 882.481 845.7 882.214 846.3L877.214 858.4C876.948 859 876.948 859.533 877.214 860C877.481 860.4 877.981 860.6 878.714 860.6Z" fill="white"/>
<path d="M370.1 129.395L334.1 182.896C328.6 184.562 324 184.496 317.6 186.896C311.2 189.296 303.1 191.396 304.6 189.396L321.6 153.896L306.1 176.896C301.267 178.396 290.44 177.119 278.1 178.396C263.6 179.895 261.6 178.896 267.6 172.396L290.1 146.395L273.1 160.896C269.767 162.729 259.6 167.396 231.6 168.396C215.616 168.966 225.593 161.068 229.596 157.899L229.6 157.896L268.6 125.895L231.6 149.896C224.267 150.896 204.1 153.896 190.6 155.396C177.1 156.896 176.1 153.895 186.1 146.395L247.1 102.896L191.6 133.396C189.933 133.729 180.5 134.695 152.1 133.895C122.1 133.05 134.933 127.396 143.6 124.396L234.1 78.3954L171.1 101.896C160.1 106.396 147.1 113.624 114.1 110.396C77.2998 106.796 76.5998 105.396 88.0998 98.3955L168.1 65.3955L247.6 30.8954L99.5998 86.3955C68.2665 84.5622 18.6333 79.6744 42.0998 76.8955C80.0998 72.3955 153.1 46.8955 192.6 30.8954C204.6 25.7287 233.168 10.1106 267.1 1.8955C314.6 -9.60447 338.1 33.8954 326.6 60.3954C317.4 81.5954 329.1 95.7288 331.6 101.395C339.433 111.895 353.4 122.895 362.6 122.895C371.8 122.895 370.6 127.062 370.1 129.395Z" fill="white"/>
<path d="M547.341 129.395L583.341 182.896C588.841 184.562 593.441 184.496 599.841 186.896C606.241 189.296 614.341 191.396 612.841 189.396L595.841 153.896L611.341 176.896C616.174 178.396 627 177.119 639.341 178.396C653.841 179.895 655.841 178.896 649.841 172.396L627.341 146.395L644.341 160.896C647.674 162.729 657.841 167.396 685.841 168.396C701.825 168.966 691.848 161.068 687.845 157.899L687.841 157.896L648.841 125.895L685.841 149.896C693.174 150.896 713.341 153.896 726.841 155.396C740.341 156.896 741.341 153.895 731.341 146.395L670.341 102.896L725.841 133.396C727.508 133.729 736.941 134.695 765.341 133.895C795.341 133.05 782.508 127.396 773.841 124.396L683.341 78.3954L746.341 101.896C757.341 106.396 770.341 113.624 803.341 110.396C840.141 106.796 840.841 105.396 829.341 98.3955L749.341 65.3955L669.841 30.8954L817.841 86.3955C849.174 84.5622 898.808 79.6744 875.341 76.8955C837.341 72.3955 764.341 46.8955 724.841 30.8954C712.841 25.7287 684.273 10.1106 650.341 1.8955C602.841 -9.60447 579.341 33.8954 590.841 60.3954C600.041 81.5954 588.341 95.7288 585.841 101.395C578.008 111.895 564.041 122.895 554.841 122.895C545.641 122.895 546.841 127.062 547.341 129.395Z" fill="white"/>
<path fill-rule="evenodd" clip-rule="evenodd" d="M364.92 402.764C363.94 399.404 365.381 391.202 367.823 389.617C382.455 389.235 399.084 382.51 406.479 378.185C416.868 372.108 432.68 361.642 430.126 349.461C427.109 335.069 412.342 332.799 399.005 332.796C381.02 332.791 363.082 339.048 355.99 345.453C347.264 353.334 334.71 367.155 328.59 385.943C325.974 393.975 325.47 400.139 326.439 409.1C327.708 420.841 337.934 439.471 356.77 451.739C368.801 459.575 382.875 466.312 396.257 472H461.123L467.922 469.411C468.178 470.315 468.315 471.177 468.078 472H520.204C533.385 466.372 547.191 459.73 559.021 452.024C577.856 439.756 588.083 421.126 589.352 409.386C590.321 400.424 589.817 394.261 587.201 386.229C581.081 367.441 568.527 353.619 559.801 345.739C552.709 339.334 534.771 333.077 516.786 333.082C503.448 333.085 488.682 335.355 485.665 349.746C483.111 361.928 498.923 372.394 509.312 378.47C516.707 382.796 533.336 389.521 547.968 389.903C550.41 391.487 551.851 399.689 550.87 403.049C546.216 419.005 526.181 429.894 473.544 457.205C465.312 461.476 466.519 465.121 467.563 468.272L467.641 468.507C463.124 466.868 460.538 465.92 458.014 464.829C454.821 463.45 451.726 461.842 444.947 458.321L444.945 458.32L444.925 458.31C444.091 457.876 443.2 457.414 442.247 456.919C389.61 429.609 369.575 418.719 364.92 402.764ZM384.702 344.41C385.531 349.444 395.006 348.518 398.732 346.523C398.878 344.334 397.014 342.245 392.905 341.908C388.795 341.571 384.433 342.775 384.702 344.41ZM531.089 344.696C530.26 349.729 520.784 348.804 517.059 346.808C516.913 344.619 518.777 342.531 522.886 342.194C526.996 341.857 531.358 343.061 531.089 344.696Z" fill="white"/>
<path fill-rule="evenodd" clip-rule="evenodd" d="M402.587 117H451H464V157.932L512.395 117L512.397 117.002L512.4 117L547.126 158H547.178L556.5 169L556.471 169.034L556.506 169.075L548 179L547.983 178.98L457.5 285L448.935 274.91L448.948 274.895L409.847 228.875L419.754 220.457L457.503 264.886L537.744 171H468.68L415.762 215.758L415.78 215.78L405.873 224.197L405.836 224.153L405.822 224.164L400.838 218.27L360.675 171H360.654L359.897 170.084L359.028 169.061L359.039 169.048L359 169L402.588 117.009L402.587 117ZM530.165 158H484.05L510.887 135.302L530.165 158ZM377.704 171H448.549L407.34 205.854L377.704 171ZM451 158V130H408.907L385.409 158H451Z" fill="#AD0019"/>
<path fill-rule="evenodd" clip-rule="evenodd" d="M458.062 289.001V289C456.062 289 434.816 285.5 431.062 264C428.562 261 423.853 261.38 420.062 263C418.166 263.81 417.992 271.399 426.562 268C426.932 267.853 427.286 267.637 427.607 267.441C428.338 266.994 428.894 266.654 429.062 267.492C430.072 272.529 433.062 282 440.316 288C441.276 288.794 441.112 291.244 441.068 291.912L441.062 292C441.031 293 440.062 293 439.062 293C438.949 293 439.018 293.001 439.115 293.002C439.34 293.005 439.712 293.011 438.316 293.011C436.316 293.011 435.323 292.018 434.816 291.511C433.913 290.608 433.495 289.563 433.122 288.633C432.876 288.018 432.649 287.453 432.316 287.011C431.316 286.011 430.316 286.011 430.316 286.011V295.011C430.316 296.011 431.316 297.011 432.316 297.011H440.316L443.062 437L443.818 472H472.273L473.03 437.001L475.776 297.012H483.776C484.776 297.012 485.776 296.012 485.776 295.012V286.012C485.776 286.012 484.776 286.012 483.776 287.012C483.442 287.454 483.216 288.019 482.97 288.634C482.597 289.564 482.179 290.609 481.276 291.512C480.769 292.019 479.776 293.012 477.776 293.012C476.38 293.012 476.752 293.007 476.976 293.003C477.074 293.002 477.143 293.001 477.03 293.001C476.03 293.001 475.061 293.001 475.03 292.001L475.024 291.913C474.979 291.246 474.816 288.795 475.776 288.001C483.03 282.001 486.02 272.531 487.03 267.493C487.198 266.655 487.754 266.995 488.485 267.442C488.806 267.638 489.16 267.854 489.53 268.001C498.1 271.4 497.926 263.811 496.03 263.001C492.238 261.381 487.53 261.001 485.03 264.001C481.295 285.391 460.247 288.965 458.062 289.001ZM467.994 913H476.071C482.605 928.675 482.329 962.319 465 976C464.226 976.611 464.763 975.262 465.819 972.606C467.441 968.529 470.289 961.372 471.5 953.5C472.799 942.671 471.847 923.211 467.994 913ZM463.229 913H452.444L456.062 959.5L463.229 913ZM437.937 913H446.015C442.161 923.211 441.209 942.671 442.509 953.5C443.72 961.372 446.567 968.529 448.189 972.606C449.246 975.262 449.783 976.611 449.009 976C431.68 962.319 431.404 928.675 437.937 913Z" fill="white"/>
</g>
<defs>
<clipPath id="clip0_18_664">
<rect width="962" height="977" fill="white"/>
</clipPath>
</defs>
</svg>
