<svg width="81" height="82" viewBox="0 0 81 82" fill="none" xmlns="http://www.w3.org/2000/svg">
<path d="M8.58836 52.104V54.0445C8.58836 54.1396 8.55493 54.2205 8.48816 54.287C8.42139 54.3536 8.34024 54.3869 8.24482 54.3869H1.10217C0.997198 54.3869 0.911315 54.3536 0.844519 54.287C0.787264 54.2205 0.758636 54.1396 0.758636 54.0445V44.285C0.758636 44.19 0.787264 44.109 0.844519 44.0425C0.911315 43.9759 0.997198 43.9426 1.10217 43.9426H3.24926C3.34468 43.9426 3.4258 43.9759 3.4926 44.0425C3.55939 44.109 3.59279 44.19 3.59279 44.285V51.4191C3.59279 51.5142 3.62142 51.5951 3.67868 51.6617C3.74547 51.7282 3.83136 51.7616 3.93633 51.7616H8.24482C8.34024 51.7616 8.42139 51.7949 8.48816 51.8614C8.55493 51.928 8.58836 52.0089 8.58836 52.104ZM14.0024 51.5761H12.7571C12.6617 51.5761 12.5805 51.6094 12.5137 51.676C12.447 51.7425 12.4135 51.8234 12.4135 51.9185V54.0445C12.4135 54.1396 12.3801 54.2205 12.3133 54.287C12.2466 54.3536 12.1654 54.3869 12.07 54.3869H9.9086C9.81321 54.3869 9.73204 54.3536 9.66527 54.287C9.5985 54.2205 9.56507 54.1396 9.56507 54.0445V44.285C9.56507 44.19 9.5985 44.109 9.66527 44.0425C9.73204 43.9759 9.81321 43.9426 9.9086 43.9426H14.2887C14.8231 43.9426 15.3241 44.0425 15.7916 44.2422C16.2688 44.442 16.6791 44.7179 17.0226 45.0698C17.3757 45.4217 17.6524 45.8308 17.8528 46.2969C18.0627 46.7629 18.1677 47.2623 18.1677 47.795C18.1677 48.3277 18.0819 48.8271 17.9101 49.2932C17.7383 49.7498 17.4759 50.1493 17.1228 50.4917C16.7793 50.8247 16.3451 51.091 15.8203 51.2907C15.305 51.481 14.699 51.5761 14.0024 51.5761ZM14.1026 46.568H12.7571C12.6617 46.568 12.5805 46.6013 12.5137 46.6678C12.447 46.7344 12.4135 46.8153 12.4135 46.9104V48.594C12.4135 48.6891 12.447 48.77 12.5137 48.8366C12.5805 48.9031 12.6617 48.9365 12.7571 48.9365H14.2887C14.6513 48.9365 14.9137 48.8223 15.0759 48.594C15.2477 48.3563 15.3336 48.0899 15.3336 47.795C15.3336 47.6429 15.305 47.4954 15.2477 47.3527C15.2 47.2005 15.1237 47.0673 15.0187 46.9532C14.9137 46.839 14.7849 46.7487 14.6322 46.6821C14.4795 46.606 14.303 46.568 14.1026 46.568ZM20.4685 50.8056C20.9838 51.1386 21.4943 51.4001 22.0001 51.5903C22.5058 51.7806 22.9781 51.8757 23.4172 51.8757C23.837 51.8757 24.1567 51.8186 24.3762 51.7045C24.5956 51.5809 24.7054 51.4001 24.7054 51.1623C24.7054 51.0387 24.6577 50.9435 24.5623 50.8769C24.4668 50.8008 24.338 50.739 24.1758 50.6915C24.0231 50.6439 23.8418 50.6058 23.6319 50.5773C23.4219 50.5488 23.2072 50.5108 22.9877 50.4632C22.7778 50.4251 22.5297 50.3823 22.2434 50.3347C21.9667 50.2777 21.6804 50.2016 21.3846 50.1065C21.0887 50.0018 20.7929 49.8734 20.4971 49.7212C20.2108 49.569 19.9532 49.374 19.7242 49.1362C19.4951 48.8984 19.3091 48.6178 19.1659 48.2944C19.0323 47.9614 18.9655 47.5715 18.9655 47.1244C18.9655 46.4681 19.0944 45.9259 19.352 45.4978C19.6097 45.0698 19.9341 44.7321 20.3254 44.4848C20.7261 44.228 21.1699 44.052 21.6566 43.9569C22.1432 43.8522 22.6156 43.7999 23.0736 43.7999C23.8752 43.7999 24.5909 43.9189 25.2207 44.1566C25.86 44.3849 26.4707 44.7226 27.0529 45.1697C27.1292 45.2362 27.1721 45.3171 27.1817 45.4122C27.1912 45.5073 27.1674 45.5929 27.1102 45.6691L25.9937 47.2528C25.9364 47.3289 25.86 47.3765 25.7646 47.3955C25.6692 47.4146 25.5833 47.3955 25.507 47.3384C25.0203 47.034 24.567 46.82 24.1472 46.6964C23.7273 46.5632 23.3408 46.4966 22.9877 46.4966C22.8828 46.4966 22.7587 46.5014 22.6156 46.5109C22.482 46.5109 22.3531 46.5299 22.2291 46.568C22.105 46.5965 22.0001 46.6488 21.9142 46.7249C21.8378 46.801 21.7997 46.9056 21.7997 47.0388C21.7997 47.172 21.8999 47.2908 22.1003 47.3955C22.3007 47.5002 22.5297 47.5905 22.7874 47.6666C23.045 47.7427 23.2931 47.8045 23.5317 47.8521C23.7702 47.8901 23.9229 47.9139 23.9897 47.9234C24.3333 47.99 24.7101 48.0899 25.1205 48.2231C25.5308 48.3467 25.9125 48.537 26.2656 48.7938C26.6282 49.0411 26.9288 49.3693 27.1674 49.7783C27.4155 50.1778 27.5396 50.682 27.5396 51.2907C27.5396 51.8614 27.4394 52.356 27.239 52.7746C27.0386 53.1836 26.757 53.5213 26.3945 53.7876C26.0413 54.054 25.6119 54.2537 25.1062 54.3869C24.6099 54.5105 24.0565 54.5724 23.4458 54.5724C22.9495 54.5724 22.4868 54.5296 22.0573 54.444C21.6279 54.3679 21.2271 54.2585 20.855 54.1158C20.4828 53.9731 20.1345 53.8067 19.8101 53.6164C19.4951 53.4167 19.2041 53.2074 18.9369 52.9886C18.8605 52.9316 18.8176 52.8554 18.8081 52.7603C18.7985 52.6557 18.8224 52.5654 18.8797 52.4892L19.9818 50.9055C20.0391 50.8294 20.1154 50.7818 20.2108 50.7628C20.3062 50.7437 20.3921 50.758 20.4685 50.8056ZM38.3249 51.5761H37.0796C36.9842 51.5761 36.903 51.6094 36.8362 51.676C36.7695 51.7425 36.736 51.8234 36.736 51.9185V54.0445C36.736 54.1396 36.7026 54.2205 36.6358 54.287C36.5691 54.3536 36.4879 54.3869 36.3925 54.3869H34.2311C34.1357 54.3869 34.0545 54.3536 33.9878 54.287C33.921 54.2205 33.8876 54.1396 33.8876 54.0445V44.285C33.8876 44.19 33.921 44.109 33.9878 44.0425C34.0545 43.9759 34.1357 43.9426 34.2311 43.9426H38.6111C39.1456 43.9426 39.6465 44.0425 40.1141 44.2422C40.5913 44.442 41.0016 44.7179 41.3451 45.0698C41.6982 45.4217 41.9749 45.8308 42.1753 46.2969C42.3852 46.7629 42.4902 47.2623 42.4902 47.795C42.4902 48.3277 42.4043 48.8271 42.2326 49.2932C42.0608 49.7498 41.7984 50.1493 41.4453 50.4917C41.1018 50.8247 40.6676 51.091 40.1427 51.2907C39.6274 51.481 39.0215 51.5761 38.3249 51.5761ZM38.4251 46.568H37.0796C36.9842 46.568 36.903 46.6013 36.8362 46.6678C36.7695 46.7344 36.736 46.8153 36.736 46.9104V48.594C36.736 48.6891 36.7695 48.77 36.8362 48.8366C36.903 48.9031 36.9842 48.9365 37.0796 48.9365H38.6111C38.9738 48.9365 39.2362 48.8223 39.3984 48.594C39.5702 48.3563 39.6561 48.0899 39.6561 47.795C39.6561 47.6429 39.6274 47.4954 39.5702 47.3527C39.5224 47.2005 39.4462 47.0673 39.3412 46.9532C39.2362 46.839 39.1073 46.7487 38.9547 46.6821C38.802 46.606 38.6255 46.568 38.4251 46.568ZM46.0935 54.3869H43.9608C43.8654 54.3869 43.7842 54.3536 43.7174 54.287C43.6507 54.2205 43.6172 54.1396 43.6172 54.0445V44.285C43.6172 44.19 43.6507 44.109 43.7174 44.0425C43.7842 43.9759 43.8654 43.9426 43.9608 43.9426H48.4124C48.9658 43.9426 49.4764 44.0377 49.944 44.228C50.4116 44.4087 50.8076 44.6655 51.132 44.9985C51.4661 45.3314 51.7237 45.7261 51.905 46.1827C52.0959 46.6393 52.1913 47.1435 52.1913 47.6951C52.1913 47.9996 52.1531 48.3039 52.0768 48.6083C52.01 48.9032 51.9098 49.1838 51.7762 49.4501C51.6426 49.7164 51.4851 49.959 51.3038 50.1778C51.1225 50.387 50.9173 50.563 50.6883 50.7057C50.6119 50.7628 50.5595 50.8341 50.5309 50.9197C50.5117 50.9959 50.5309 51.0719 50.5881 51.148C50.9508 51.6237 51.3324 52.1135 51.7332 52.6177C52.134 53.1218 52.4919 53.5831 52.8068 54.0017C52.864 54.0778 52.8783 54.1634 52.8497 54.2585C52.8211 54.3441 52.759 54.3869 52.6636 54.3869H50.0012C49.9058 54.3869 49.8008 54.3632 49.6863 54.3156C49.5813 54.2585 49.5003 54.1919 49.443 54.1158C49.1376 53.7163 48.8323 53.312 48.5269 52.903C48.2311 52.494 47.9352 52.0803 47.6395 51.6617C47.5822 51.5856 47.5011 51.5238 47.3961 51.4762C47.2911 51.4191 47.1909 51.3906 47.0955 51.3906H46.7806C46.6852 51.3906 46.604 51.4239 46.5373 51.4905C46.4705 51.557 46.4371 51.6379 46.4371 51.733V54.0445C46.4371 54.1396 46.4037 54.2205 46.3369 54.287C46.2701 54.3536 46.1889 54.3869 46.0935 54.3869ZM46.7806 48.7653H48.2979C48.4124 48.7653 48.5317 48.7462 48.6557 48.7082C48.7798 48.6606 48.8943 48.594 48.9993 48.5084C49.1043 48.4133 49.1902 48.2992 49.2569 48.166C49.3237 48.0328 49.3571 47.8758 49.3571 47.6951C49.3571 47.6 49.338 47.4906 49.2999 47.367C49.2712 47.2338 49.214 47.1101 49.1281 46.996C49.0517 46.8724 48.942 46.7725 48.7989 46.6964C48.6653 46.6108 48.4983 46.568 48.2979 46.568H46.7806C46.6852 46.568 46.604 46.6013 46.5373 46.6678C46.4705 46.7344 46.4371 46.8153 46.4371 46.9104V48.4228C46.4371 48.5179 46.4705 48.5988 46.5373 48.6654C46.604 48.7319 46.6852 48.7653 46.7806 48.7653ZM56.5244 54.3869H54.363C54.2581 54.3869 54.1722 54.3536 54.1054 54.287C54.0481 54.2205 54.0195 54.1396 54.0195 54.0445V44.2993C54.0195 44.2042 54.0481 44.1233 54.1054 44.0568C54.1722 43.9902 54.2581 43.9569 54.363 43.9569H56.5244C56.6199 43.9569 56.701 43.9902 56.7678 44.0568C56.8346 44.1233 56.868 44.2042 56.868 44.2993V54.0445C56.868 54.1396 56.8346 54.2205 56.7678 54.287C56.701 54.3536 56.6199 54.3869 56.5244 54.3869ZM70.464 44.2993V54.0445C70.464 54.1396 70.4306 54.2205 70.3638 54.287C70.2971 54.3536 70.2159 54.3869 70.1205 54.3869H67.9591C67.8637 54.3869 67.7825 54.3536 67.7157 54.287C67.649 54.2205 67.6155 54.1396 67.6155 54.0445V49.4501C67.6155 49.355 67.5726 49.3027 67.4867 49.2932C67.4008 49.2837 67.3293 49.3169 67.272 49.393L64.8673 53.2597C64.8195 53.3358 64.7432 53.3739 64.6383 53.3739C64.5333 53.3739 64.4522 53.3358 64.3949 53.2597L61.9902 49.393C61.9424 49.3169 61.8757 49.2837 61.7898 49.2932C61.7039 49.3027 61.6609 49.355 61.6609 49.4501V54.0445C61.6609 54.1396 61.6275 54.2205 61.5608 54.287C61.4939 54.3536 61.4128 54.3869 61.3174 54.3869H59.156C59.0605 54.3869 58.9795 54.3536 58.9127 54.287C58.8458 54.2205 58.8125 54.1396 58.8125 54.0445V44.2993C58.8125 44.2042 58.8458 44.1233 58.9127 44.0568C58.9795 43.9902 59.0605 43.9569 59.156 43.9569H61.16C61.2554 43.9569 61.3556 43.9854 61.4606 44.0425C61.5655 44.0996 61.6418 44.1661 61.6896 44.2422L64.4379 48.2659C64.4951 48.342 64.5619 48.38 64.6383 48.38C64.7145 48.38 64.7766 48.342 64.8243 48.2659L67.5726 44.2422C67.6299 44.1661 67.7109 44.0996 67.8159 44.0425C67.9209 43.9854 68.0211 43.9569 68.1165 43.9569H70.1205C70.2159 43.9569 70.2971 43.9902 70.3638 44.0568C70.4306 44.1233 70.464 44.2042 70.464 44.2993ZM75.5398 46.9104V47.5097C75.5398 47.6047 75.5732 47.6857 75.64 47.7522C75.7069 47.8188 75.788 47.8521 75.8834 47.8521H79.7624C79.8579 47.8521 79.939 47.8854 80.0058 47.952C80.0726 48.0185 80.106 48.0994 80.106 48.1945V50.1635C80.106 50.2586 80.0726 50.3395 80.0058 50.4061C79.939 50.4726 79.8579 50.506 79.7624 50.506H75.8834C75.788 50.506 75.7069 50.5393 75.64 50.6058C75.5732 50.6724 75.5398 50.7533 75.5398 50.8484V51.3906C75.5398 51.4857 75.5732 51.5666 75.64 51.6332C75.7069 51.6997 75.788 51.733 75.8834 51.733H80.335C80.4305 51.733 80.5116 51.7663 80.5783 51.8329C80.6452 51.8995 80.6785 51.9804 80.6785 52.0755V54.0445C80.6785 54.1396 80.6452 54.2205 80.5783 54.287C80.5116 54.3536 80.4305 54.3869 80.335 54.3869H73.0492C72.9538 54.3869 72.8727 54.3536 72.8059 54.287C72.7391 54.2205 72.7057 54.1396 72.7057 54.0445V44.285C72.7057 44.19 72.7391 44.109 72.8059 44.0425C72.8727 43.9759 72.9538 43.9426 73.0492 43.9426H80.335C80.4305 43.9426 80.5116 43.9759 80.5783 44.0425C80.6452 44.109 80.6785 44.19 80.6785 44.285V46.2255C80.6785 46.3206 80.6452 46.4015 80.5783 46.4681C80.5116 46.5346 80.4305 46.568 80.335 46.568H75.8834C75.788 46.568 75.7069 46.6013 75.64 46.6678C75.5732 46.7344 75.5398 46.8153 75.5398 46.9104Z" fill="#307E1A"/>
<path d="M6.50329 64.4166C6.3405 64.6795 6.16088 64.9202 5.96441 65.1384C5.76795 65.351 5.54622 65.5329 5.29923 65.6839C5.05787 65.835 4.78843 65.9525 4.49092 66.0364C4.19341 66.1204 3.86504 66.1623 3.50578 66.1623C3.05672 66.1623 2.63572 66.0784 2.24279 65.9105C1.84986 65.7427 1.50464 65.5161 1.20713 65.2307C0.915247 64.9453 0.685097 64.6096 0.516698 64.2235C0.348299 63.8375 0.264099 63.4262 0.264099 62.9898C0.264099 62.5533 0.348299 62.1421 0.516698 61.756C0.685097 61.3699 0.915247 61.0342 1.20713 60.7488C1.50464 60.4635 1.84986 60.2369 2.24279 60.069C2.63572 59.9011 3.05672 59.8172 3.50578 59.8172C3.87626 59.8172 4.21025 59.8592 4.50776 59.9431C4.80527 60.027 5.07471 60.1445 5.31607 60.2956C5.55745 60.4467 5.77356 60.6313 5.96441 60.8495C6.16088 61.0621 6.3405 61.2971 6.50329 61.5546C6.53136 61.5993 6.53697 61.6469 6.52013 61.6972C6.50329 61.7476 6.46961 61.7839 6.41909 61.8064L5.22345 62.2764C5.16733 62.2988 5.11119 62.2988 5.05505 62.2764C4.99893 62.254 4.95683 62.2204 4.92876 62.1756C4.76597 61.9182 4.56951 61.7224 4.33936 61.5881C4.10922 61.4482 3.83136 61.3783 3.50578 61.3783C3.29248 61.3783 3.0904 61.423 2.89954 61.5126C2.71431 61.6022 2.55152 61.7224 2.41119 61.8735C2.27086 62.0189 2.1614 62.1897 2.08281 62.3855C2.00423 62.5813 1.96493 62.7827 1.96493 62.9898C1.96493 63.2024 2.00423 63.4067 2.08281 63.6025C2.1614 63.7927 2.27086 63.9606 2.41119 64.106C2.55152 64.2515 2.71431 64.369 2.89954 64.4586C3.0904 64.5481 3.29248 64.5928 3.50578 64.5928C3.81452 64.5928 4.09238 64.5201 4.33936 64.3746C4.59196 64.2235 4.79123 64.0305 4.93717 63.7955C4.96525 63.7508 5.00453 63.7172 5.05505 63.6948C5.11119 63.6724 5.16733 63.6724 5.22345 63.6948L6.41909 64.1648C6.46961 64.1872 6.50329 64.2235 6.52013 64.2739C6.53697 64.3186 6.53136 64.3662 6.50329 64.4166ZM6.86726 62.9814C6.86726 62.5449 6.95146 62.1337 7.11986 61.7476C7.28826 61.3615 7.51559 61.0258 7.80187 60.7404C8.08815 60.4494 8.42492 60.2201 8.81223 60.0522C9.19955 59.8843 9.61213 59.8004 10.05 59.8004C10.4878 59.8004 10.9004 59.8843 11.2877 60.0522C11.675 60.2201 12.0118 60.4494 12.2981 60.7404C12.59 61.0258 12.8201 61.3615 12.9885 61.7476C13.1569 62.1337 13.2411 62.5449 13.2411 62.9814C13.2411 63.4178 13.1569 63.8291 12.9885 64.2152C12.8201 64.6012 12.59 64.9397 12.2981 65.2307C12.0118 65.5161 11.675 65.7427 11.2877 65.9105C10.9004 66.0784 10.4878 66.1623 10.05 66.1623C9.61213 66.1623 9.19955 66.0784 8.81223 65.9105C8.42492 65.7427 8.08815 65.5161 7.80187 65.2307C7.51559 64.9397 7.28826 64.6012 7.11986 64.2152C6.95146 63.8291 6.86726 63.4178 6.86726 62.9814ZM8.53438 62.9814C8.53438 63.194 8.5737 63.3954 8.65226 63.5857C8.7309 63.7759 8.83749 63.9438 8.97221 64.0893C9.11257 64.2347 9.27533 64.3522 9.46057 64.4418C9.64581 64.5257 9.84233 64.5677 10.05 64.5677C10.2577 64.5677 10.4541 64.5257 10.6394 64.4418C10.8246 64.3522 10.9874 64.2347 11.1277 64.0893C11.2681 63.9438 11.3775 63.7759 11.4561 63.5857C11.5347 63.3954 11.574 63.194 11.574 62.9814C11.574 62.7743 11.5347 62.5757 11.4561 62.3855C11.3775 62.1897 11.2681 62.0218 11.1277 61.8819C10.9874 61.7364 10.8246 61.6217 10.6394 61.5378C10.4541 61.4482 10.2577 61.4035 10.05 61.4035C9.84233 61.4035 9.64581 61.4482 9.46057 61.5378C9.27533 61.6217 9.11257 61.7364 8.97221 61.8819C8.83749 62.0218 8.7309 62.1897 8.65226 62.3855C8.5737 62.5757 8.53438 62.7743 8.53438 62.9814ZM19.9024 60.111V65.8518C19.9024 65.9078 19.8828 65.9553 19.8435 65.9945C19.8042 66.0337 19.7565 66.0532 19.7003 66.0532H18.4542C18.398 66.0532 18.3391 66.0364 18.2774 66.0029C18.2156 65.9693 18.1679 65.9301 18.1342 65.8854L15.9366 62.8051C15.9029 62.7604 15.8665 62.7436 15.8272 62.7548C15.7935 62.7604 15.7766 62.7911 15.7766 62.8471V65.8518C15.7766 65.9078 15.757 65.9553 15.7177 65.9945C15.6784 66.0337 15.6307 66.0532 15.5746 66.0532H14.32C14.2638 66.0532 14.2162 66.0337 14.1768 65.9945C14.1375 65.9553 14.1179 65.9078 14.1179 65.8518V60.111C14.1179 60.055 14.1375 60.0075 14.1768 59.9683C14.2162 59.9291 14.2638 59.9095 14.32 59.9095H15.583C15.6391 59.9095 15.6981 59.9263 15.7598 59.9599C15.8215 59.9878 15.8693 60.0243 15.9029 60.069L18.0921 63.1492C18.1258 63.194 18.1595 63.2136 18.1932 63.208C18.2325 63.2024 18.2521 63.1716 18.2521 63.1157V60.111C18.2521 60.055 18.2717 60.0075 18.311 59.9683C18.3504 59.9291 18.398 59.9095 18.4542 59.9095H19.7003C19.7565 59.9095 19.8042 59.9291 19.8435 59.9683C19.8828 60.0075 19.9024 60.055 19.9024 60.111ZM25.2882 61.4538H24.1094C24.0532 61.4538 24.0055 61.4734 23.9662 61.5126C23.9269 61.5518 23.9073 61.5993 23.9073 61.6553V65.8518C23.9073 65.9078 23.8877 65.9553 23.8483 65.9945C23.8147 66.0337 23.7669 66.0532 23.7052 66.0532H22.4422C22.3861 66.0532 22.3384 66.0337 22.2991 65.9945C22.2598 65.9553 22.2401 65.9078 22.2401 65.8518V61.6553C22.2401 61.5993 22.2205 61.5518 22.1812 61.5126C22.1475 61.4734 22.0998 61.4538 22.0381 61.4538H20.8424C20.7863 61.4538 20.7386 61.4343 20.6993 61.3951C20.66 61.3559 20.6403 61.3084 20.6403 61.2524V60.111C20.6403 60.055 20.66 60.0075 20.6993 59.9683C20.7386 59.9291 20.7863 59.9095 20.8424 59.9095H25.2882C25.3499 59.9095 25.3976 59.9291 25.4313 59.9683C25.4706 60.0075 25.4902 60.055 25.4902 60.111V61.2524C25.4902 61.3084 25.4706 61.3559 25.4313 61.3951C25.3976 61.4343 25.3499 61.4538 25.2882 61.4538ZM27.3 60.1026C27.3225 60.0522 27.359 60.0102 27.4095 59.9767C27.4656 59.9375 27.5246 59.9179 27.5863 59.9179H28.7651C28.8213 59.9179 28.8746 59.9375 28.9251 59.9767C28.9812 60.0102 29.0206 60.0522 29.043 60.1026L31.5016 65.8098C31.5241 65.8602 31.5184 65.9133 31.4847 65.9693C31.4567 66.0253 31.3978 66.0532 31.3079 66.0532H29.8681C29.8064 66.0532 29.7475 66.0364 29.6913 66.0029C29.6408 65.9637 29.6015 65.9189 29.5734 65.8686L29.3461 65.365C29.318 65.3146 29.2759 65.2727 29.2198 65.2391C29.1693 65.1999 29.116 65.1804 29.0598 65.1804H27.2832C27.2215 65.1804 27.1625 65.1999 27.1064 65.2391C27.0558 65.2727 27.0194 65.3146 26.9969 65.365L26.7611 65.8686C26.7387 65.9189 26.6994 65.9637 26.6433 66.0029C26.5927 66.0364 26.5394 66.0532 26.4833 66.0532H25.0351C25.007 66.0532 24.979 66.0476 24.9509 66.0364C24.9172 66.0253 24.8919 66.0085 24.8751 65.9861C24.8527 65.9637 24.8386 65.9357 24.833 65.9022C24.8274 65.8686 24.8358 65.8294 24.8582 65.7847L27.3 60.1026ZM27.7968 63.7535H28.5462C28.6023 63.7535 28.6417 63.7368 28.6641 63.7032C28.6922 63.664 28.6922 63.6192 28.6641 63.5689C28.608 63.429 28.5406 63.2667 28.462 63.0821C28.3834 62.8918 28.3104 62.7156 28.2431 62.5533C28.2207 62.503 28.1954 62.4778 28.1673 62.4778C28.1392 62.4778 28.114 62.503 28.0915 62.5533L27.6705 63.5689C27.6481 63.6192 27.6481 63.664 27.6705 63.7032C27.693 63.7368 27.7351 63.7535 27.7968 63.7535ZM36.3107 62.8891C36.4006 62.9394 36.4903 63.0009 36.5802 63.0737C36.67 63.1465 36.7513 63.2359 36.8243 63.3423C36.9029 63.4486 36.9647 63.5717 37.0096 63.7116C37.0601 63.8515 37.0854 64.0109 37.0854 64.19C37.0854 64.5536 37.0264 64.8558 36.9085 65.0964C36.7963 65.3314 36.6419 65.5217 36.4454 65.6672C36.249 65.8071 36.0217 65.9078 35.7634 65.9693C35.5108 66.0253 35.2442 66.0532 34.9635 66.0532H32.2944C32.2382 66.0532 32.1906 66.0337 32.1513 65.9945C32.1119 65.9553 32.0923 65.9078 32.0923 65.8518V60.111C32.0923 60.055 32.1119 60.0075 32.1513 59.9683C32.1906 59.9291 32.2382 59.9095 32.2944 59.9095H34.8372C35.1067 59.9095 35.3649 59.9403 35.6119 60.0019C35.8588 60.0578 36.075 60.1529 36.2602 60.2872C36.4511 60.4215 36.6026 60.5978 36.7149 60.816C36.8328 61.0286 36.8917 61.2916 36.8917 61.6049C36.8917 61.8567 36.8271 62.0749 36.698 62.2596C36.5745 62.4442 36.4398 62.5897 36.2939 62.696C36.1928 62.7688 36.1985 62.8331 36.3107 62.8891ZM33.9616 62.2428H34.7446C34.8568 62.2428 34.9467 62.2008 35.0141 62.1169C35.0814 62.0273 35.1151 61.9295 35.1151 61.8231C35.1151 61.7224 35.073 61.6357 34.9888 61.563C34.9102 61.4902 34.8345 61.4538 34.7615 61.4538H33.9616C33.9054 61.4538 33.8577 61.4734 33.8184 61.5126C33.7791 61.5518 33.7595 61.5993 33.7595 61.6553V62.0414C33.7595 62.0973 33.7791 62.1448 33.8184 62.184C33.8577 62.2232 33.9054 62.2428 33.9616 62.2428ZM34.8457 63.6276H33.9616C33.9054 63.6276 33.8577 63.6472 33.8184 63.6864C33.7791 63.7256 33.7595 63.7731 33.7595 63.8291V64.3075C33.7595 64.3635 33.7791 64.411 33.8184 64.4502C33.8577 64.4894 33.9054 64.5089 33.9616 64.5089H34.9046C35.0056 64.5089 35.101 64.4669 35.1909 64.383C35.2807 64.2991 35.3256 64.2011 35.3256 64.0893C35.3256 63.9885 35.2807 63.8878 35.1909 63.7871C35.1067 63.6808 34.9916 63.6276 34.8457 63.6276ZM39.537 66.0532H38.2656C38.2039 66.0532 38.1534 66.0337 38.114 65.9945C38.0803 65.9553 38.0635 65.9078 38.0635 65.8518V60.1193C38.0635 60.0634 38.0803 60.0159 38.114 59.9767C38.1534 59.9375 38.2039 59.9179 38.2656 59.9179H39.537C39.5932 59.9179 39.6409 59.9375 39.6801 59.9767C39.7195 60.0159 39.7391 60.0634 39.7391 60.1193V65.8518C39.7391 65.9078 39.7195 65.9553 39.6801 65.9945C39.6409 66.0337 39.5932 66.0532 39.537 66.0532ZM45.455 64.7103V65.8518C45.455 65.9078 45.4353 65.9553 45.396 65.9945C45.3567 66.0337 45.309 66.0532 45.2529 66.0532H41.0513C40.9895 66.0532 40.939 66.0337 40.8998 65.9945C40.8661 65.9553 40.8493 65.9078 40.8493 65.8518V60.111C40.8493 60.055 40.8661 60.0075 40.8998 59.9683C40.939 59.9291 40.9895 59.9095 41.0513 59.9095H42.3143C42.3704 59.9095 42.4181 59.9291 42.4575 59.9683C42.4967 60.0075 42.5164 60.055 42.5164 60.111V64.3075C42.5164 64.3635 42.5332 64.411 42.5669 64.4502C42.6062 64.4894 42.6567 64.5089 42.7185 64.5089H45.2529C45.309 64.5089 45.3567 64.5285 45.396 64.5677C45.4353 64.6069 45.455 64.6544 45.455 64.7103ZM47.5787 66.0532H46.3073C46.2456 66.0532 46.1951 66.0337 46.1558 65.9945C46.1221 65.9553 46.1052 65.9078 46.1052 65.8518V60.1193C46.1052 60.0634 46.1221 60.0159 46.1558 59.9767C46.1951 59.9375 46.2456 59.9179 46.3073 59.9179H47.5787C47.6349 59.9179 47.6826 59.9375 47.7219 59.9767C47.7612 60.0159 47.7808 60.0634 47.7808 60.1193V65.8518C47.7808 65.9078 47.7612 65.9553 47.7219 65.9945C47.6826 66.0337 47.6349 66.0532 47.5787 66.0532ZM48.9162 65.8518V60.111C48.9162 60.055 48.9359 60.0075 48.9751 59.9683C49.0144 59.9291 49.0622 59.9095 49.1182 59.9095H51.4169C52.2982 59.9095 53.0195 60.1669 53.5808 60.6817C53.8839 60.9614 54.1141 61.2944 54.2713 61.6805C54.4285 62.0665 54.507 62.5002 54.507 62.9814C54.507 63.4626 54.4285 63.899 54.2713 64.2907C54.1141 64.6768 53.8839 65.0097 53.5808 65.2895C53.3002 65.5413 52.9774 65.7315 52.6125 65.8602C52.2533 65.9889 51.8547 66.0532 51.4169 66.0532H49.1182C49.0622 66.0532 49.0144 66.0337 48.9751 65.9945C48.9359 65.9553 48.9162 65.9078 48.9162 65.8518ZM50.7854 64.5089H51.4169C51.5741 64.5089 51.7369 64.4894 51.9053 64.4502C52.0737 64.411 52.2252 64.3383 52.3599 64.2319C52.4946 64.1201 52.6041 63.9661 52.6883 63.7703C52.7781 63.5689 52.823 63.3087 52.823 62.9898C52.823 62.6708 52.7781 62.4134 52.6883 62.2176C52.6041 62.0162 52.4919 61.8623 52.3515 61.756C52.2168 61.6441 52.0652 61.5686 51.8968 61.5294C51.7341 61.4902 51.5741 61.4706 51.4169 61.4706H50.7854C50.7293 61.4706 50.6816 61.4902 50.6423 61.5294C50.603 61.5686 50.5833 61.6161 50.5833 61.6721V64.3075C50.5833 64.3635 50.603 64.411 50.6423 64.4502C50.6816 64.4894 50.7293 64.5089 50.7854 64.5089ZM56.6795 60.1026C56.7019 60.0522 56.7384 60.0102 56.7889 59.9767C56.8451 59.9375 56.904 59.9179 56.9657 59.9179H58.1445C58.2007 59.9179 58.254 59.9375 58.3045 59.9767C58.3607 60.0102 58.4 60.0522 58.4224 60.1026L60.881 65.8098C60.9035 65.8602 60.8979 65.9133 60.8642 65.9693C60.8361 66.0253 60.7772 66.0532 60.6873 66.0532H59.2475C59.1858 66.0532 59.1269 66.0364 59.0707 66.0029C59.0202 65.9637 58.981 65.9189 58.9528 65.8686L58.7255 65.365C58.6975 65.3146 58.6554 65.2727 58.5992 65.2391C58.5487 65.1999 58.4954 65.1804 58.4392 65.1804H56.6626C56.6009 65.1804 56.542 65.1999 56.4858 65.2391C56.4353 65.2727 56.3988 65.3146 56.3763 65.365L56.1406 65.8686C56.1182 65.9189 56.0789 65.9637 56.0227 66.0029C55.9722 66.0364 55.9189 66.0532 55.8627 66.0532H54.4145C54.3864 66.0532 54.3584 66.0476 54.3303 66.0364C54.2966 66.0253 54.2713 66.0085 54.2545 65.9861C54.2321 65.9637 54.218 65.9357 54.2124 65.9022C54.2068 65.8686 54.2153 65.8294 54.2377 65.7847L56.6795 60.1026ZM57.1762 63.7535H57.9256C57.9818 63.7535 58.0211 63.7368 58.0435 63.7032C58.0716 63.664 58.0716 63.6192 58.0435 63.5689C57.9874 63.429 57.92 63.2667 57.8414 63.0821C57.7628 62.8918 57.6898 62.7156 57.6225 62.5533C57.6001 62.503 57.5748 62.4778 57.5467 62.4778C57.5187 62.4778 57.4934 62.503 57.4709 62.5533L57.0499 63.5689C57.0275 63.6192 57.0275 63.664 57.0499 63.7032C57.0724 63.7368 57.1145 63.7535 57.1762 63.7535ZM61.4886 65.8518V60.111C61.4886 60.055 61.5082 60.0075 61.5475 59.9683C61.5869 59.9291 61.6345 59.9095 61.6907 59.9095H63.9893C64.8706 59.9095 65.5919 60.1669 66.1533 60.6817C66.4564 60.9614 66.6865 61.2944 66.8437 61.6805C67.0009 62.0665 67.0794 62.5002 67.0794 62.9814C67.0794 63.4626 67.0009 63.899 66.8437 64.2907C66.6865 64.6768 66.4564 65.0097 66.1533 65.2895C65.8726 65.5413 65.5498 65.7315 65.185 65.8602C64.8257 65.9889 64.4272 66.0532 63.9893 66.0532H61.6907C61.6345 66.0532 61.5869 66.0337 61.5475 65.9945C61.5082 65.9553 61.4886 65.9078 61.4886 65.8518ZM63.3578 64.5089H63.9893C64.1465 64.5089 64.3093 64.4894 64.4777 64.4502C64.6461 64.411 64.7976 64.3383 64.9324 64.2319C65.0671 64.1201 65.1765 63.9661 65.2607 63.7703C65.3506 63.5689 65.3955 63.3087 65.3955 62.9898C65.3955 62.6708 65.3506 62.4134 65.2607 62.2176C65.1765 62.0162 65.0643 61.8623 64.9239 61.756C64.7892 61.6441 64.6377 61.5686 64.4693 61.5294C64.3065 61.4902 64.1465 61.4706 63.9893 61.4706H63.3578C63.3017 61.4706 63.254 61.4902 63.2147 61.5294C63.1754 61.5686 63.1557 61.6161 63.1557 61.6721V64.3075C63.1557 64.3635 63.1754 64.411 63.2147 64.4502C63.254 64.4894 63.3017 64.5089 63.3578 64.5089ZM69.4865 61.6553V62.0078C69.4865 62.0638 69.5062 62.1113 69.5455 62.1505C69.5848 62.1897 69.6325 62.2092 69.6886 62.2092H71.9704C72.0266 62.2092 72.0742 62.2288 72.1136 62.268C72.1529 62.3072 72.1725 62.3547 72.1725 62.4106V63.5689C72.1725 63.6249 72.1529 63.6724 72.1136 63.7116C72.0742 63.7508 72.0266 63.7703 71.9704 63.7703H69.6886C69.6325 63.7703 69.5848 63.7899 69.5455 63.8291C69.5062 63.8683 69.4865 63.9158 69.4865 63.9718V64.2907C69.4865 64.3467 69.5062 64.3942 69.5455 64.4334C69.5848 64.4726 69.6325 64.4921 69.6886 64.4921H72.3072C72.3634 64.4921 72.411 64.5117 72.4504 64.5509C72.4897 64.5901 72.5093 64.6376 72.5093 64.6936V65.8518C72.5093 65.9078 72.4897 65.9553 72.4504 65.9945C72.411 66.0337 72.3634 66.0532 72.3072 66.0532H68.0215C67.9653 66.0532 67.9176 66.0337 67.8783 65.9945C67.839 65.9553 67.8194 65.9078 67.8194 65.8518V60.111C67.8194 60.055 67.839 60.0075 67.8783 59.9683C67.9176 59.9291 67.9653 59.9095 68.0215 59.9095H72.3072C72.3634 59.9095 72.411 59.9291 72.4504 59.9683C72.4897 60.0075 72.5093 60.055 72.5093 60.111V61.2524C72.5093 61.3084 72.4897 61.3559 72.4504 61.3951C72.411 61.4343 72.3634 61.4538 72.3072 61.4538H69.6886C69.6325 61.4538 69.5848 61.4734 69.5455 61.5126C69.5062 61.5518 69.4865 61.5993 69.4865 61.6553ZM78.1121 61.6553V62.0078C78.1121 62.0638 78.1317 62.1113 78.1711 62.1505C78.2103 62.1897 78.258 62.2092 78.3142 62.2092H80.596C80.6521 62.2092 80.6998 62.2288 80.7391 62.268C80.7784 62.3072 80.7981 62.3547 80.7981 62.4106V63.5689C80.7981 63.6249 80.7784 63.6724 80.7391 63.7116C80.6998 63.7508 80.6521 63.7703 80.596 63.7703H78.3142C78.258 63.7703 78.2103 63.7899 78.1711 63.8291C78.1317 63.8683 78.1121 63.9158 78.1121 63.9718V64.2907C78.1121 64.3467 78.1317 64.3942 78.1711 64.4334C78.2103 64.4726 78.258 64.4921 78.3142 64.4921H80.9328C80.9889 64.4921 81.0366 64.5117 81.0759 64.5509C81.1152 64.5901 81.1349 64.6376 81.1349 64.6936V65.8518C81.1349 65.9078 81.1152 65.9553 81.0759 65.9945C81.0366 66.0337 80.9889 66.0532 80.9328 66.0532H76.647C76.5909 66.0532 76.5431 66.0337 76.5039 65.9945C76.4646 65.9553 76.445 65.9078 76.445 65.8518V60.111C76.445 60.055 76.4646 60.0075 76.5039 59.9683C76.5431 59.9291 76.5909 59.9095 76.647 59.9095H80.9328C80.9889 59.9095 81.0366 59.9291 81.0759 59.9683C81.1152 60.0075 81.1349 60.055 81.1349 60.111V61.2524C81.1349 61.3084 81.1152 61.3559 81.0759 61.3951C81.0366 61.4343 80.9889 61.4538 80.9328 61.4538H78.3142C78.258 61.4538 78.2103 61.4734 78.1711 61.5126C78.1317 61.5518 78.1121 61.5993 78.1121 61.6553ZM10.4214 72.8936C10.2586 73.1565 10.0789 73.3971 9.88249 73.6154C9.68606 73.828 9.46428 74.0098 9.21732 74.1609C8.97592 74.312 8.70648 74.4295 8.40899 74.5134C8.11149 74.5973 7.78311 74.6393 7.42386 74.6393C6.9748 74.6393 6.5538 74.5554 6.16086 74.3875C5.76794 74.2197 5.42272 73.993 5.12521 73.7077C4.83332 73.4223 4.60317 73.0866 4.43477 72.7005C4.26637 72.3144 4.18217 71.9032 4.18217 71.4667C4.18217 71.0303 4.26637 70.619 4.43477 70.233C4.60317 69.8469 4.83332 69.5112 5.12521 69.2258C5.42272 68.9404 5.76794 68.7138 6.16086 68.546C6.5538 68.3781 6.9748 68.2942 7.42386 68.2942C7.79434 68.2942 8.12833 68.3361 8.42584 68.4201C8.72332 68.504 8.99276 68.6215 9.23416 68.7726C9.47556 68.9237 9.69161 69.1083 9.88249 69.3265C10.0789 69.5391 10.2586 69.7741 10.4214 70.0315C10.4494 70.0763 10.4551 70.1239 10.4382 70.1742C10.4214 70.2246 10.3877 70.2609 10.3372 70.2833L9.14154 70.7533C9.08538 70.7757 9.0293 70.7757 8.97314 70.7533C8.91698 70.7309 8.87488 70.6973 8.84684 70.6526C8.68408 70.3952 8.48756 70.1994 8.25743 70.0651C8.02729 69.9252 7.74943 69.8553 7.42386 69.8553C7.21056 69.8553 7.00848 69.9 6.81762 69.9896C6.63238 70.0791 6.4696 70.1994 6.32926 70.3505C6.18894 70.4959 6.07948 70.6666 6.00089 70.8624C5.9223 71.0582 5.88301 71.2597 5.88301 71.4667C5.88301 71.6793 5.9223 71.8836 6.00089 72.0794C6.07948 72.2697 6.18894 72.4376 6.32926 72.583C6.4696 72.7285 6.63238 72.846 6.81762 72.9355C7.00848 73.0251 7.21056 73.0698 7.42386 73.0698C7.73259 73.0698 8.01045 72.997 8.25743 72.8516C8.51004 72.7005 8.70934 72.5075 8.85526 72.2725C8.8833 72.2277 8.92262 72.1942 8.97314 72.1718C9.0293 72.1493 9.08538 72.1493 9.14154 72.1718L10.3372 72.6418C10.3877 72.6642 10.4214 72.7005 10.4382 72.7509C10.4551 72.7956 10.4494 72.8432 10.4214 72.8936ZM12.7135 70.1322V70.4848C12.7135 70.5407 12.7332 70.5882 12.7725 70.6274C12.8117 70.6666 12.8595 70.6862 12.9156 70.6862H15.1974C15.2535 70.6862 15.3012 70.7057 15.3406 70.7449C15.3798 70.7841 15.3995 70.8316 15.3995 70.8876V72.0459C15.3995 72.1018 15.3798 72.1493 15.3406 72.1885C15.3012 72.2277 15.2535 72.2473 15.1974 72.2473H12.9156C12.8595 72.2473 12.8117 72.2668 12.7725 72.306C12.7332 72.3452 12.7135 72.3927 12.7135 72.4487V72.7677C12.7135 72.8236 12.7332 72.8711 12.7725 72.9103C12.8117 72.9495 12.8595 72.9691 12.9156 72.9691H15.5342C15.5903 72.9691 15.638 72.9886 15.6774 73.0278C15.7166 73.067 15.7363 73.1145 15.7363 73.1705V74.3288C15.7363 74.3847 15.7166 74.4323 15.6774 74.4714C15.638 74.5106 15.5903 74.5302 15.5342 74.5302H11.2485C11.1923 74.5302 11.1446 74.5106 11.1053 74.4714C11.066 74.4323 11.0464 74.3847 11.0464 74.3288V68.5879C11.0464 68.5319 11.066 68.4844 11.1053 68.4452C11.1446 68.406 11.1923 68.3865 11.2485 68.3865H15.5342C15.5903 68.3865 15.638 68.406 15.6774 68.4452C15.7166 68.4844 15.7363 68.5319 15.7363 68.5879V69.7294C15.7363 69.7854 15.7166 69.8329 15.6774 69.8721C15.638 69.9113 15.5903 69.9308 15.5342 69.9308H12.9156C12.8595 69.9308 12.8117 69.9504 12.7725 69.9896C12.7332 70.0288 12.7135 70.0763 12.7135 70.1322ZM18.2674 74.5302H17.0129C16.9568 74.5302 16.909 74.5106 16.8697 74.4714C16.8305 74.4323 16.8108 74.3847 16.8108 74.3288V68.5879C16.8108 68.5319 16.8305 68.4844 16.8697 68.4452C16.909 68.406 16.9568 68.3865 17.0129 68.3865H19.6315C19.9571 68.3865 20.2574 68.4425 20.5324 68.5544C20.8075 68.6607 21.0405 68.8118 21.2313 69.0076C21.4278 69.2034 21.5793 69.4356 21.6859 69.7042C21.7983 69.9728 21.8543 70.2693 21.8543 70.5939C21.8543 70.7729 21.8319 70.952 21.787 71.131C21.7477 71.3045 21.6888 71.4695 21.6101 71.6262C21.5316 71.7829 21.439 71.9256 21.3323 72.0543C21.2257 72.1774 21.105 72.2809 20.9702 72.3648C20.9254 72.3984 20.8945 72.4403 20.8776 72.4907C20.8664 72.5354 20.8776 72.5802 20.9113 72.625C21.1247 72.9047 21.3491 73.1929 21.5849 73.4895C21.8207 73.786 22.0311 74.0574 22.2164 74.3036C22.2501 74.3483 22.2585 74.3987 22.2416 74.4547C22.2248 74.505 22.1884 74.5302 22.1322 74.5302H20.5661C20.51 74.5302 20.4482 74.5162 20.3808 74.4882C20.3191 74.4547 20.2714 74.4155 20.2377 74.3707C20.0581 74.1357 19.8785 73.8979 19.6988 73.6573C19.5249 73.4167 19.3508 73.1733 19.1768 72.9271C19.1431 72.8824 19.0954 72.846 19.0336 72.818C18.9719 72.7844 18.913 72.7677 18.8568 72.7677H18.6716C18.6155 72.7677 18.5678 72.7872 18.5284 72.8264C18.4892 72.8656 18.4695 72.9131 18.4695 72.9691V74.3288C18.4695 74.3847 18.4499 74.4323 18.4106 74.4714C18.3713 74.5106 18.3236 74.5302 18.2674 74.5302ZM18.6716 71.2233H19.5641C19.6315 71.2233 19.7017 71.2122 19.7746 71.1898C19.8476 71.1618 19.915 71.1226 19.9767 71.0723C20.0385 71.0163 20.089 70.9491 20.1282 70.8708C20.1676 70.7925 20.1872 70.7002 20.1872 70.5939C20.1872 70.5379 20.176 70.4736 20.1535 70.4008C20.1367 70.3225 20.103 70.2497 20.0525 70.1826C20.0076 70.1098 19.943 70.0511 19.8588 70.0063C19.7802 69.956 19.682 69.9308 19.5641 69.9308H18.6716C18.6155 69.9308 18.5678 69.9504 18.5284 69.9896C18.4892 70.0288 18.4695 70.0763 18.4695 70.1322V71.0219C18.4695 71.0779 18.4892 71.1254 18.5284 71.1646C18.5678 71.2038 18.6155 71.2233 18.6716 71.2233ZM26.8957 69.9308H25.7169C25.6607 69.9308 25.613 69.9504 25.5738 69.9896C25.5344 70.0288 25.5148 70.0763 25.5148 70.1322V74.3288C25.5148 74.3847 25.4951 74.4323 25.4559 74.4714C25.4222 74.5106 25.3745 74.5302 25.3127 74.5302H24.0497C23.9936 74.5302 23.9458 74.5106 23.9066 74.4714C23.8673 74.4323 23.8477 74.3847 23.8477 74.3288V70.1322C23.8477 70.0763 23.828 70.0288 23.7887 69.9896C23.7551 69.9504 23.7073 69.9308 23.6456 69.9308H22.45C22.3938 69.9308 22.3461 69.9113 22.3068 69.8721C22.2675 69.8329 22.2479 69.7854 22.2479 69.7294V68.5879C22.2479 68.5319 22.2675 68.4844 22.3068 68.4452C22.3461 68.406 22.3938 68.3865 22.45 68.3865H26.8957C26.9574 68.3865 27.0052 68.406 27.0388 68.4452C27.0781 68.4844 27.0978 68.5319 27.0978 68.5879V69.7294C27.0978 69.7854 27.0781 69.8329 27.0388 69.8721C27.0052 69.9113 26.9574 69.9308 26.8957 69.9308ZM29.2876 74.5302H28.0161C27.9543 74.5302 27.9038 74.5106 27.8646 74.4714C27.8309 74.4323 27.8141 74.3847 27.8141 74.3288V68.5963C27.8141 68.5403 27.8309 68.4928 27.8646 68.4536C27.9038 68.4144 27.9543 68.3949 28.0161 68.3949H29.2876C29.3436 68.3949 29.3914 68.4144 29.4307 68.4536C29.4699 68.4928 29.4896 68.5403 29.4896 68.5963V74.3288C29.4896 74.3847 29.4699 74.4323 29.4307 74.4714C29.3914 74.5106 29.3436 74.5302 29.2876 74.5302ZM32.2753 70.1406V70.4931C32.2753 70.5491 32.2949 70.5966 32.3342 70.6358C32.3736 70.675 32.4212 70.6946 32.4774 70.6946H34.7508C34.8069 70.6946 34.8546 70.7141 34.8939 70.7533C34.9332 70.7925 34.9528 70.84 34.9528 70.896V72.071C34.9528 72.127 34.9332 72.1745 34.8939 72.2137C34.8546 72.2529 34.8069 72.2725 34.7508 72.2725H32.4774C32.4212 72.2725 32.3736 72.292 32.3342 72.3312C32.2949 72.3704 32.2753 72.4179 32.2753 72.4739V74.3288C32.2753 74.3847 32.2557 74.4323 32.2164 74.4714C32.177 74.5106 32.1294 74.5302 32.0732 74.5302H30.8018C30.7456 74.5302 30.698 74.5106 30.6587 74.4714C30.6193 74.4323 30.5997 74.3847 30.5997 74.3288V68.5879C30.5997 68.5319 30.6193 68.4844 30.6587 68.4452C30.698 68.406 30.7456 68.3865 30.8018 68.3865H35.0876C35.1437 68.3865 35.1914 68.406 35.2307 68.4452C35.27 68.4844 35.2896 68.5319 35.2896 68.5879V69.7378C35.2896 69.7938 35.27 69.8413 35.2307 69.8805C35.1914 69.9196 35.1437 69.9392 35.0876 69.9392H32.4774C32.4212 69.9392 32.3736 69.9588 32.3342 69.998C32.2949 70.0372 32.2753 70.0847 32.2753 70.1406ZM37.6418 74.5302H36.3703C36.3085 74.5302 36.258 74.5106 36.2188 74.4714C36.1851 74.4323 36.1683 74.3847 36.1683 74.3288V68.5963C36.1683 68.5403 36.1851 68.4928 36.2188 68.4536C36.258 68.4144 36.3085 68.3949 36.3703 68.3949H37.6418C37.6978 68.3949 37.7456 68.4144 37.7849 68.4536C37.8241 68.4928 37.8438 68.5403 37.8438 68.5963V74.3288C37.8438 74.3847 37.8241 74.4323 37.7849 74.4714C37.7456 74.5106 37.6978 74.5302 37.6418 74.5302ZM44.9152 72.8936C44.7525 73.1565 44.5728 73.3971 44.3764 73.6154C44.1799 73.828 43.9582 74.0098 43.7112 74.1609C43.4698 74.312 43.2004 74.4295 42.9029 74.5134C42.6054 74.5973 42.277 74.6393 41.9177 74.6393C41.4687 74.6393 41.0477 74.5554 40.6548 74.3875C40.2618 74.2197 39.9166 73.993 39.6191 73.7077C39.3272 73.4223 39.0971 73.0866 38.9287 72.7005C38.7603 72.3144 38.6761 71.9032 38.6761 71.4667C38.6761 71.0303 38.7603 70.619 38.9287 70.233C39.0971 69.8469 39.3272 69.5112 39.6191 69.2258C39.9166 68.9404 40.2618 68.7138 40.6548 68.546C41.0477 68.3781 41.4687 68.2942 41.9177 68.2942C42.2882 68.2942 42.6222 68.3361 42.9197 68.4201C43.2172 68.504 43.4866 68.6215 43.728 68.7726C43.9694 68.9237 44.1855 69.1083 44.3764 69.3265C44.5728 69.5391 44.7525 69.7741 44.9152 70.0315C44.9433 70.0763 44.9489 70.1239 44.9321 70.1742C44.9153 70.2246 44.8816 70.2609 44.8311 70.2833L43.6354 70.7533C43.5793 70.7757 43.5232 70.7757 43.467 70.7533C43.4109 70.7309 43.3688 70.6973 43.3407 70.6526C43.178 70.3952 42.9814 70.1994 42.7513 70.0651C42.5212 69.9252 42.2433 69.8553 41.9177 69.8553C41.7045 69.8553 41.5024 69.9 41.3115 69.9896C41.1263 70.0791 40.9635 70.1994 40.8232 70.3505C40.6828 70.4959 40.5733 70.6666 40.4948 70.8624C40.4162 71.0582 40.3769 71.2597 40.3769 71.4667C40.3769 71.6793 40.4162 71.8836 40.4948 72.0794C40.5733 72.2697 40.6828 72.4376 40.8232 72.583C40.9635 72.7285 41.1263 72.846 41.3115 72.9355C41.5024 73.0251 41.7045 73.0698 41.9177 73.0698C42.2265 73.0698 42.5044 72.997 42.7513 72.8516C43.0039 72.7005 43.2032 72.5075 43.3491 72.2725C43.3772 72.2277 43.4165 72.1942 43.467 72.1718C43.5232 72.1493 43.5793 72.1493 43.6354 72.1718L44.8311 72.6418C44.8816 72.6642 44.9153 72.7005 44.9321 72.7509C44.9489 72.7956 44.9433 72.8432 44.9152 72.8936ZM47.1043 68.5795C47.1267 68.5292 47.1632 68.4872 47.2137 68.4536C47.2698 68.4144 47.3287 68.3949 47.3905 68.3949H48.5693C48.6254 68.3949 48.6788 68.4144 48.7293 68.4536C48.7854 68.4872 48.8247 68.5292 48.8472 68.5795L51.3058 74.2868C51.3282 74.3372 51.3227 74.3903 51.289 74.4463C51.2609 74.5022 51.2019 74.5302 51.1122 74.5302H49.6724C49.6106 74.5302 49.5516 74.5134 49.4955 74.4798C49.445 74.4406 49.4057 74.3959 49.3777 74.3456L49.1503 73.842C49.1222 73.7916 49.0801 73.7496 49.024 73.7161C48.9735 73.6769 48.9201 73.6573 48.864 73.6573H47.0874C47.0256 73.6573 46.9667 73.6769 46.9106 73.7161C46.8601 73.7496 46.8236 73.7916 46.8012 73.842L46.5654 74.3456C46.5429 74.3959 46.5036 74.4406 46.4475 74.4798C46.397 74.5134 46.3436 74.5302 46.2875 74.5302H44.8393C44.8112 74.5302 44.7831 74.5246 44.7551 74.5134C44.7214 74.5022 44.6962 74.4855 44.6793 74.4631C44.6568 74.4406 44.6428 74.4127 44.6372 74.3791C44.6316 74.3456 44.64 74.3064 44.6625 74.2616L47.1043 68.5795ZM47.601 72.2305H48.3504C48.4065 72.2305 48.4458 72.2137 48.4683 72.1801C48.4963 72.141 48.4963 72.0962 48.4683 72.0459C48.4121 71.9059 48.3448 71.7437 48.2662 71.5591C48.1876 71.3688 48.1147 71.1925 48.0473 71.0303C48.0248 70.9799 47.9996 70.9548 47.9715 70.9548C47.9434 70.9548 47.9181 70.9799 47.8957 71.0303L47.4748 72.0459C47.4523 72.0962 47.4523 72.141 47.4748 72.1801C47.4971 72.2137 47.5392 72.2305 47.601 72.2305ZM51.9133 74.3288V68.5879C51.9133 68.5319 51.933 68.4844 51.9723 68.4452C52.0116 68.406 52.0593 68.3865 52.1154 68.3865H54.4141C55.2954 68.3865 56.0167 68.6439 56.578 69.1587C56.8811 69.4384 57.1113 69.7713 57.2684 70.1574C57.4256 70.5435 57.5042 70.9772 57.5042 71.4583C57.5042 71.9395 57.4256 72.376 57.2684 72.7677C57.1113 73.1537 56.8811 73.4867 56.578 73.7664C56.2974 74.0182 55.9746 74.2085 55.6097 74.3372C55.2505 74.4658 54.8519 74.5302 54.4141 74.5302H52.1154C52.0593 74.5302 52.0116 74.5106 51.9723 74.4714C51.933 74.4323 51.9133 74.3847 51.9133 74.3288ZM53.7826 72.9859H54.4141C54.5713 72.9859 54.734 72.9663 54.9024 72.9271C55.0708 72.8879 55.2224 72.8152 55.3571 72.7089C55.4918 72.597 55.6013 72.4431 55.6855 72.2473C55.7753 72.0459 55.8202 71.7857 55.8202 71.4667C55.8202 71.1478 55.7753 70.8904 55.6855 70.6946C55.6013 70.4931 55.489 70.3393 55.3487 70.233C55.214 70.1211 55.0624 70.0455 54.894 70.0063C54.7312 69.9672 54.5713 69.9476 54.4141 69.9476H53.7826C53.7265 69.9476 53.6787 69.9672 53.6394 70.0063C53.6002 70.0455 53.5805 70.093 53.5805 70.149V72.7844C53.5805 72.8404 53.6002 72.8879 53.6394 72.9271C53.6787 72.9663 53.7265 72.9859 53.7826 72.9859ZM58.2462 71.4583C58.2462 71.0219 58.3304 70.6107 58.4988 70.2246C58.6672 69.8385 58.8946 69.5028 59.1809 69.2174C59.4671 68.9264 59.8039 68.697 60.1912 68.5292C60.5786 68.3613 60.9911 68.2774 61.429 68.2774C61.8668 68.2774 62.2794 68.3613 62.6667 68.5292C63.054 68.697 63.3908 68.9264 63.6771 69.2174C63.969 69.5028 64.1991 69.8385 64.3675 70.2246C64.5359 70.6107 64.6201 71.0219 64.6201 71.4583C64.6201 71.8948 64.5359 72.306 64.3675 72.6921C64.1991 73.0782 63.969 73.4167 63.6771 73.7077C63.3908 73.993 63.054 74.2197 62.6667 74.3875C62.2794 74.5554 61.8668 74.6393 61.429 74.6393C60.9911 74.6393 60.5786 74.5554 60.1912 74.3875C59.8039 74.2197 59.4671 73.993 59.1809 73.7077C58.8946 73.4167 58.6672 73.0782 58.4988 72.6921C58.3304 72.306 58.2462 71.8948 58.2462 71.4583ZM59.9134 71.4583C59.9134 71.6709 59.9527 71.8724 60.0313 72.0626C60.1099 72.2529 60.2165 72.4208 60.3512 72.5662C60.4916 72.7117 60.6543 72.8292 60.8396 72.9187C61.0248 73.0027 61.2213 73.0446 61.429 73.0446C61.6367 73.0446 61.8331 73.0027 62.0184 72.9187C62.2036 72.8292 62.3665 72.7117 62.5067 72.5662C62.6471 72.4208 62.7566 72.2529 62.8351 72.0626C62.9138 71.8724 62.953 71.6709 62.953 71.4583C62.953 71.2513 62.9138 71.0527 62.8351 70.8624C62.7566 70.6666 62.6471 70.4988 62.5067 70.3589C62.3665 70.2134 62.2036 70.0987 62.0184 70.0147C61.8331 69.9252 61.6367 69.8805 61.429 69.8805C61.2213 69.8805 61.0248 69.9252 60.8396 70.0147C60.6543 70.0987 60.4916 70.2134 60.3512 70.3589C60.2165 70.4988 60.1099 70.6666 60.0313 70.8624C59.9527 71.0527 59.9134 71.2513 59.9134 71.4583ZM66.9536 74.5302H65.699C65.6428 74.5302 65.5952 74.5106 65.5559 74.4714C65.5165 74.4323 65.4969 74.3847 65.4969 74.3288V68.5879C65.4969 68.5319 65.5165 68.4844 65.5559 68.4452C65.5952 68.406 65.6428 68.3865 65.699 68.3865H68.3176C68.6432 68.3865 68.9435 68.4425 69.2185 68.5544C69.4936 68.6607 69.7265 68.8118 69.9174 69.0076C70.1138 69.2034 70.2654 69.4356 70.3721 69.7042C70.4843 69.9728 70.5405 70.2693 70.5405 70.5939C70.5405 70.7729 70.518 70.952 70.4731 71.131C70.4338 71.3045 70.3749 71.4695 70.2963 71.6262C70.2177 71.7829 70.1251 71.9256 70.0184 72.0543C69.9118 72.1774 69.7911 72.2809 69.6564 72.3648C69.6115 72.3984 69.5806 72.4403 69.5638 72.4907C69.5526 72.5354 69.5638 72.5802 69.5974 72.625C69.8107 72.9047 70.0353 73.1929 70.271 73.4895C70.5068 73.786 70.7173 74.0574 70.9025 74.3036C70.9362 74.3483 70.9446 74.3987 70.9278 74.4547C70.9109 74.505 70.8745 74.5302 70.8183 74.5302H69.2522C69.1961 74.5302 69.1343 74.5162 69.067 74.4882C69.0053 74.4547 68.9575 74.4155 68.9238 74.3707C68.7442 74.1357 68.5646 73.8979 68.385 73.6573C68.2109 73.4167 68.037 73.1733 67.8629 72.9271C67.8292 72.8824 67.7815 72.846 67.7198 72.818C67.6581 72.7844 67.5991 72.7677 67.543 72.7677H67.3577C67.3016 72.7677 67.2539 72.7872 67.2146 72.8264C67.1753 72.8656 67.1556 72.9131 67.1556 72.9691V74.3288C67.1556 74.3847 67.136 74.4323 67.0967 74.4714C67.0574 74.5106 67.0097 74.5302 66.9536 74.5302ZM67.3577 71.2233H68.2502C68.3176 71.2233 68.3877 71.2122 68.4607 71.1898C68.5337 71.1618 68.6011 71.1226 68.6628 71.0723C68.7245 71.0163 68.7751 70.9491 68.8144 70.8708C68.8537 70.7925 68.8733 70.7002 68.8733 70.5939C68.8733 70.5379 68.8621 70.4736 68.8396 70.4008C68.8228 70.3225 68.7891 70.2497 68.7386 70.1826C68.6937 70.1098 68.6291 70.0511 68.5449 70.0063C68.4664 69.956 68.3681 69.9308 68.2502 69.9308H67.3577C67.3016 69.9308 67.2539 69.9504 67.2146 69.9896C67.1753 70.0288 67.1556 70.0763 67.1556 70.1322V71.0219C67.1556 71.0779 67.1753 71.1254 67.2146 71.1646C67.2539 71.2038 67.3016 71.2233 67.3577 71.2233ZM73.4906 68.5795C73.5131 68.5292 73.5495 68.4872 73.6 68.4536C73.6562 68.4144 73.7151 68.3949 73.7768 68.3949H74.9556C75.0118 68.3949 75.0651 68.4144 75.1156 68.4536C75.1718 68.4872 75.2111 68.5292 75.2335 68.5795L77.6921 74.2868C77.7146 74.3372 77.709 74.3903 77.6753 74.4463C77.6473 74.5022 77.5883 74.5302 77.4985 74.5302H76.0587C75.9969 74.5302 75.938 74.5134 75.8818 74.4798C75.8313 74.4406 75.7921 74.3959 75.764 74.3456L75.5366 73.842C75.5086 73.7916 75.4665 73.7496 75.4103 73.7161C75.3598 73.6769 75.3065 73.6573 75.2503 73.6573H73.4737C73.412 73.6573 73.3531 73.6769 73.2969 73.7161C73.2464 73.7496 73.2099 73.7916 73.1875 73.842L72.9517 74.3456C72.9293 74.3959 72.89 74.4406 72.8338 74.4798C72.7833 74.5134 72.73 74.5302 72.6738 74.5302H71.2256C71.1976 74.5302 71.1695 74.5246 71.1414 74.5134C71.1077 74.5022 71.0825 74.4855 71.0656 74.4631C71.0432 74.4406 71.0292 74.4127 71.0235 74.3791C71.018 74.3456 71.0264 74.3064 71.0488 74.2616L73.4906 68.5795ZM73.9874 72.2305H74.7367C74.7929 72.2305 74.8322 72.2137 74.8546 72.1801C74.8827 72.141 74.8827 72.0962 74.8546 72.0459C74.7985 71.9059 74.7312 71.7437 74.6525 71.5591C74.574 71.3688 74.501 71.1925 74.4336 71.0303C74.4112 70.9799 74.3859 70.9548 74.3578 70.9548C74.3298 70.9548 74.3045 70.9799 74.282 71.0303L73.861 72.0459C73.8387 72.0962 73.8387 72.141 73.861 72.1801C73.8835 72.2137 73.9256 72.2305 73.9874 72.2305Z" fill="#307E1A"/>
<path d="M31.1622 10.8602L28.1311 15.3505C27.668 15.4904 27.2806 15.4848 26.7418 15.6863C26.2029 15.8877 25.5209 16.0639 25.6472 15.8961L27.0786 12.9166L25.7735 14.847C25.3665 14.9728 24.4549 14.8657 23.4159 14.9728C22.195 15.0987 22.0266 15.0148 22.5318 14.4693L24.4263 12.287L22.9949 13.5041C22.7142 13.6579 21.8582 14.0496 19.5006 14.1335C18.1548 14.1814 18.9948 13.5185 19.3319 13.2525L19.3322 13.2523L22.616 10.5664L19.5006 12.5808C18.8832 12.6648 17.1851 12.9166 16.0484 13.0424C14.9117 13.1683 14.8275 12.9165 15.6695 12.287L20.8057 8.6361L16.1326 11.196C15.9923 11.2239 15.198 11.305 12.8067 11.2379C10.2807 11.1669 11.3613 10.6924 12.091 10.4406L19.7111 6.57976L14.4065 8.55217C13.4803 8.92986 12.3857 9.53651 9.60715 9.26558C6.50859 8.96343 6.44965 8.84593 7.41794 8.25837L14.1539 5.48867L20.8478 2.59306L8.38624 7.25121C5.74799 7.09734 1.56889 6.6871 3.54476 6.45387C6.74435 6.07618 12.8909 3.93596 16.2168 2.59306C17.2272 2.15942 19.6326 0.848587 22.4897 0.15909C26.4892 -0.806107 28.4679 2.84485 27.4996 5.06901C26.7249 6.84833 27.7101 8.03456 27.9206 8.51012C28.5801 9.39139 29.7561 10.3146 30.5307 10.3146C31.3054 10.3146 31.2043 10.6644 31.1622 10.8602Z" fill="#307E1A"/>
<path d="M46.0859 10.8602L49.1171 15.3505C49.5802 15.4904 49.9675 15.4848 50.5064 15.6863C51.0452 15.8877 51.7273 16.0639 51.601 15.8961L50.1696 12.9166L51.4747 14.847C51.8816 14.9728 52.7931 14.8657 53.8322 14.9728C55.0531 15.0987 55.2215 15.0148 54.7163 14.4693L52.8218 12.287L54.2532 13.5041C54.5339 13.6579 55.3899 14.0496 57.7475 14.1335C59.0934 14.1814 58.2533 13.5185 57.9163 13.2525L57.9159 13.2523L54.6321 10.5664L57.7475 12.5808C58.365 12.6648 60.063 12.9166 61.1997 13.0424C62.3364 13.1683 62.4206 12.9165 61.5786 12.287L56.4424 8.6361L61.1155 11.196C61.2559 11.2239 62.0501 11.305 64.4414 11.2379C66.9674 11.1669 65.8868 10.6924 65.1571 10.4406L57.537 6.57976L62.8416 8.55217C63.7678 8.92986 64.8624 9.53651 67.641 9.26558C70.7395 8.96343 70.7985 8.84593 69.8302 8.25837L63.0942 5.48867L56.4003 2.59306L68.8619 7.25121C71.5001 7.09734 75.6793 6.6871 73.7033 6.45387C70.5038 6.07618 64.3572 3.93596 61.0313 2.59306C60.0209 2.15942 57.6155 0.848587 54.7584 0.15909C50.759 -0.806107 48.7803 2.84485 49.7486 5.06901C50.5232 6.84833 49.5381 8.03456 49.3276 8.51012C48.668 9.39139 47.492 10.3146 46.7174 10.3146C45.9427 10.3146 46.0438 10.6644 46.0859 10.8602Z" fill="#307E1A"/>
<path fill-rule="evenodd" clip-rule="evenodd" d="M30.7261 33.8041C30.6436 33.5221 30.7649 32.8337 30.9705 32.7007C32.2026 32.6687 33.6027 32.1042 34.2254 31.7412C35.1001 31.2312 36.4315 30.3528 36.2164 29.3304C35.9624 28.1225 34.719 27.932 33.5961 27.9317C32.0817 27.9313 30.5714 28.4564 29.9742 28.994C29.2395 29.6555 28.1824 30.8155 27.6671 32.3924C27.4469 33.0665 27.4044 33.5838 27.486 34.3359C27.5929 35.3214 28.4539 36.885 30.0399 37.9146C31.0529 38.5723 32.2379 39.1378 33.3647 39.6151H38.8264L39.3988 39.3979C39.4204 39.4737 39.4319 39.5461 39.412 39.6151H43.801C44.9108 39.1428 46.0733 38.5853 47.0693 37.9386C48.6552 36.9089 49.5163 35.3453 49.6232 34.3599C49.7048 33.6077 49.6623 33.0905 49.4421 32.4164C48.9268 30.8395 47.8697 29.6794 47.135 29.018C46.5379 28.4804 45.0275 27.9553 43.5132 27.9557C42.3901 27.956 41.1468 28.1465 40.8928 29.3543C40.6777 30.3768 42.0091 31.2552 42.8839 31.7651C43.5065 32.1282 44.9067 32.6927 46.1387 32.7247C46.3443 32.8577 46.4656 33.5461 46.383 33.8281C45.9912 35.1673 44.3042 36.0812 39.8722 38.3734C39.1791 38.7319 39.2807 39.0378 39.3686 39.3023L39.3752 39.322C38.9949 39.1844 38.7771 39.1049 38.5646 39.0133C38.2957 38.8975 38.0351 38.7626 37.4644 38.4671L37.4642 38.467L37.4625 38.4661C37.3923 38.4297 37.3173 38.3909 37.237 38.3494C32.805 36.0573 31.1181 35.1433 30.7261 33.8041ZM32.3917 28.9065C32.4616 29.329 33.2593 29.2513 33.5731 29.0838C33.5854 28.9001 33.4284 28.7248 33.0824 28.6965C32.7364 28.6682 32.3691 28.7692 32.3917 28.9065ZM44.7175 28.9305C44.6477 29.3529 43.8498 29.2753 43.5362 29.1077C43.5239 28.924 43.6808 28.7488 44.0268 28.7205C44.3728 28.6922 44.7401 28.7932 44.7175 28.9305Z" fill="#307E1A"/>
<path fill-rule="evenodd" clip-rule="evenodd" d="M33.8976 9.81985H37.974H39.0686V13.2553L43.1434 9.81985L43.1436 9.82002L43.1438 9.81985L46.0678 13.261H46.0721L46.857 14.1842L46.8546 14.1871L46.8576 14.1905L46.1414 15.0235L46.1399 15.0219L38.5213 23.9202L37.8001 23.0733L37.8012 23.072L34.5089 19.2096L35.3431 18.503L38.5215 22.232L45.2778 14.3521H39.4626L35.007 18.1087L35.0085 18.1105L34.1743 18.8169L34.1712 18.8132L34.17 18.8142L33.7504 18.3195L30.3687 14.3521H30.3669L30.3032 14.2752L30.23 14.1894L30.2309 14.1883L30.2276 14.1842L33.8977 9.82061L33.8976 9.81985ZM44.6397 13.261H40.7568L43.0165 11.3559L44.6397 13.261ZM31.8025 14.3521H37.7676L34.2978 17.2774L31.8025 14.3521ZM37.974 13.261V10.9109H34.4298L32.4513 13.261H37.974Z" fill="#AD0019"/>
<path fill-rule="evenodd" clip-rule="evenodd" d="M38.5686 24.256V24.2559C38.4002 24.2559 36.6113 23.9621 36.2952 22.1576C36.0847 21.9058 35.6882 21.9377 35.369 22.0737C35.2094 22.1417 35.1947 22.7786 35.9163 22.4934C35.9475 22.481 35.9773 22.4629 36.0043 22.4464C36.0659 22.4089 36.1127 22.3804 36.1268 22.4507C36.2119 22.8735 36.4636 23.6684 37.0744 24.172C37.1552 24.2386 37.1414 24.4442 37.1377 24.5003L37.1372 24.5077C37.1346 24.5916 37.053 24.5916 36.9688 24.5916C36.9593 24.5916 36.9651 24.5917 36.9733 24.5918C36.9922 24.592 37.0236 24.5925 36.906 24.5925C36.7376 24.5925 36.654 24.5092 36.6113 24.4666C36.5353 24.3909 36.5001 24.3032 36.4687 24.2251C36.448 24.1735 36.4289 24.1261 36.4008 24.089C36.3166 24.005 36.2324 24.005 36.2324 24.005V24.7604C36.2324 24.8443 36.3166 24.9283 36.4008 24.9283H37.0744L37.3056 36.6776L37.3693 39.6152H39.7652L39.8289 36.6777L40.0601 24.9284H40.7337C40.8179 24.9284 40.9021 24.8444 40.9021 24.7605V24.0051C40.9021 24.0051 40.8179 24.0051 40.7337 24.089C40.7056 24.1261 40.6866 24.1736 40.6659 24.2252C40.6345 24.3032 40.5993 24.3909 40.5232 24.4667C40.4805 24.5093 40.3969 24.5926 40.2285 24.5926C40.111 24.5926 40.1423 24.5922 40.1612 24.5919C40.1694 24.5918 40.1752 24.5917 40.1657 24.5917C40.0815 24.5917 39.9999 24.5917 39.9973 24.5078L39.9968 24.5004C39.993 24.4444 39.9793 24.2387 40.0601 24.1721C40.6709 23.6685 40.9227 22.8737 41.0077 22.4508C41.0219 22.3805 41.0687 22.409 41.1302 22.4465C41.1572 22.463 41.1871 22.4811 41.2182 22.4934C41.9398 22.7787 41.9251 22.1418 41.7655 22.0738C41.4462 21.9378 41.0498 21.9059 40.8393 22.1577C40.5248 23.953 38.7526 24.253 38.5686 24.256ZM39.4049 76.6285H40.085C40.6351 77.9441 40.6119 80.7678 39.1528 81.9161C39.0876 81.9674 39.1328 81.8541 39.2218 81.6312C39.3583 81.289 39.5981 80.6883 39.7001 80.0276C39.8095 79.1188 39.7293 77.4855 39.4049 76.6285ZM39.0037 76.6285H38.0956L38.4002 80.5312L39.0037 76.6285ZM36.8741 76.6285H37.5543C37.2298 77.4855 37.1496 79.1188 37.2591 80.0276C37.361 80.6883 37.6007 81.289 37.7373 81.6312C37.8263 81.8541 37.8715 81.9674 37.8064 81.9161C36.3473 80.7678 36.324 77.9441 36.8741 76.6285Z" fill="#307E1A"/>
</svg>
